<svg version="1.1" viewBox="0.0 0.0 968.6929133858267 466.3937007874016" fill="none" stroke="none" stroke-linecap="square" stroke-miterlimit="10" xmlns:xlink="http://www.w3.org/1999/xlink" xmlns="http://www.w3.org/2000/svg"><clipPath id="p.0"><path d="m0 0l968.69293 0l0 466.3937l-968.69293 0l0 -466.3937z" clip-rule="nonzero"/></clipPath><g clip-path="url(#p.0)"><path fill="#000000" fill-opacity="0.0" d="m0 0l968.69293 0l0 466.3937l-968.69293 0z" fill-rule="evenodd"/><path fill="#212529" d="m0 0l968.69293 0l0 466.3937l-968.69293 0z" fill-rule="evenodd"/><g filter="url(#shadowFilter-p.1)"><use xlink:href="#p.1" transform="matrix(1.0 0.0 0.0 1.0 4.0 0.0)"/></g><defs><filter id="shadowFilter-p.1" filterUnits="userSpaceOnUse"><feGaussianBlur in="SourceAlpha" stdDeviation="11.5" result="blur"/><feComponentTransfer in="blur" color-interpolation-filters="sRGB"><feFuncR type="linear" slope="0" intercept="1.0"/><feFuncG type="linear" slope="0" intercept="0.8980392"/><feFuncB type="linear" slope="0" intercept="0.6"/><feFuncA type="linear" slope="1.0" intercept="0"/></feComponentTransfer></filter></defs><g id="p.1"><path fill="#000000" fill-opacity="0.0" d="m18.897638 233.2441l108.21999 -187.54321l212.25294 0l108.21997 187.54321l-108.21997 187.54323l-212.25294 0z" fill-rule="evenodd"/><path stroke="#bf9000" stroke-width="1.0" stroke-linejoin="round" stroke-linecap="butt" d="m18.897638 233.2441l108.21999 -187.54321l212.25294 0l108.21997 187.54321l-108.21997 187.54323l-212.25294 0z" fill-rule="evenodd"/></g><g filter="url(#shadowFilter-p.2)"><use xlink:href="#p.2" transform=""/></g><defs><filter id="shadowFilter-p.2" filterUnits="userSpaceOnUse"><feGaussianBlur in="SourceAlpha" stdDeviation="11.5" result="blur"/><feComponentTransfer in="blur" color-interpolation-filters="sRGB"><feFuncR type="linear" slope="0" intercept="1.0"/><feFuncG type="linear" slope="0" intercept="0.8980392"/><feFuncB type="linear" slope="0" intercept="0.6"/><feFuncA type="linear" slope="1.0" intercept="0"/></feComponentTransfer></filter></defs><g id="p.2"><path fill="#000000" fill-opacity="0.0" d="m233.2441 447.59055l-187.54321 -108.21997l0 -212.25294l187.54321 -108.21999l187.54323 108.21999l0 212.25294z" fill-rule="evenodd"/><path stroke="#bf9000" stroke-width="1.0" stroke-linejoin="round" stroke-linecap="butt" d="m233.2441 447.59055l-187.54321 -108.21997l0 -212.25294l187.54321 -108.21999l187.54323 108.21999l0 212.25294z" fill-rule="evenodd"/></g><g filter="url(#shadowFilter-p.3)"><use xlink:href="#p.3" transform=""/></g><defs><filter id="shadowFilter-p.3" filterUnits="userSpaceOnUse"><feGaussianBlur in="SourceAlpha" stdDeviation="11.5" result="blur"/><feComponentTransfer in="blur" color-interpolation-filters="sRGB"><feFuncR type="linear" slope="0" intercept="1.0"/><feFuncG type="linear" slope="0" intercept="0.8980392"/><feFuncB type="linear" slope="0" intercept="0.6"/><feFuncA type="linear" slope="1.0" intercept="0"/></feComponentTransfer></filter></defs><g id="p.3"><path fill="#000000" fill-opacity="0.0" d="m18.897638 233.2441l108.21999 -187.54321l212.25294 0l108.21997 187.54321l-108.21997 187.54323l-212.25294 0z" fill-rule="evenodd"/><path stroke="#bf9000" stroke-width="1.0" stroke-linejoin="round" stroke-linecap="butt" d="m18.897638 233.2441l108.21999 -187.54321l212.25294 0l108.21997 187.54321l-108.21997 187.54323l-212.25294 0z" fill-rule="evenodd"/></g><g filter="url(#shadowFilter-p.4)"><use xlink:href="#p.4" transform=""/></g><defs><filter id="shadowFilter-p.4" filterUnits="userSpaceOnUse"><feGaussianBlur in="SourceAlpha" stdDeviation="11.5" result="blur"/><feComponentTransfer in="blur" color-interpolation-filters="sRGB"><feFuncR type="linear" slope="0" intercept="1.0"/><feFuncG type="linear" slope="0" intercept="0.8980392"/><feFuncB type="linear" slope="0" intercept="0.6"/><feFuncA type="linear" slope="1.0" intercept="0"/></feComponentTransfer></filter></defs><g id="p.4"><path fill="#000000" fill-opacity="0.0" d="m29.700787 233.2441l101.69534 -176.23615l203.6959 0l101.69537 176.23615l-101.69537 176.23613l-203.6959 0z" fill-rule="evenodd"/><path stroke="#bf9000" stroke-width="2.0" stroke-linejoin="round" stroke-linecap="butt" d="m29.700787 233.2441l101.69534 -176.23615l203.6959 0l101.69537 176.23615l-101.69537 176.23613l-203.6959 0z" fill-rule="evenodd"/></g><g filter="url(#shadowFilter-p.5)"><use xlink:href="#p.5" transform=""/></g><defs><filter id="shadowFilter-p.5" filterUnits="userSpaceOnUse"><feGaussianBlur in="SourceAlpha" stdDeviation="11.5" result="blur"/><feComponentTransfer in="blur" color-interpolation-filters="sRGB"><feFuncR type="linear" slope="0" intercept="1.0"/><feFuncG type="linear" slope="0" intercept="0.8980392"/><feFuncB type="linear" slope="0" intercept="0.6"/><feFuncA type="linear" slope="1.0" intercept="0"/></feComponentTransfer></filter></defs><g id="p.5"><path fill="#000000" fill-opacity="0.0" d="m233.2441 436.7874l-176.23615 -101.69537l0 -203.6959l176.23615 -101.69534l176.23613 101.69534l0 203.6959z" fill-rule="evenodd"/><path stroke="#bf9000" stroke-width="2.0" stroke-linejoin="round" stroke-linecap="butt" d="m233.2441 436.7874l-176.23615 -101.69537l0 -203.6959l176.23615 -101.69534l176.23613 101.69534l0 203.6959z" fill-rule="evenodd"/></g><g filter="url(#shadowFilter-p.6)"><use xlink:href="#p.6" transform=""/></g><defs><filter id="shadowFilter-p.6" filterUnits="userSpaceOnUse"><feGaussianBlur in="SourceAlpha" stdDeviation="11.5" result="blur"/><feComponentTransfer in="blur" color-interpolation-filters="sRGB"><feFuncR type="linear" slope="0" intercept="1.0"/><feFuncG type="linear" slope="0" intercept="0.8980392"/><feFuncB type="linear" slope="0" intercept="0.6"/><feFuncA type="linear" slope="1.0" intercept="0"/></feComponentTransfer></filter></defs><g id="p.6"><path fill="#000000" fill-opacity="0.0" d="m233.2441 421.43307l-164.36212 -94.84357l0 -186.69083l164.36212 -94.84357l164.36214 94.84357l0 186.69083z" fill-rule="evenodd"/><path stroke="#bf9000" stroke-width="4.0" stroke-linejoin="round" stroke-linecap="butt" d="m233.2441 421.43307l-164.36212 -94.84357l0 -186.69083l164.36212 -94.84357l164.36214 94.84357l0 186.69083z" fill-rule="evenodd"/></g><g filter="url(#shadowFilter-p.7)"><use xlink:href="#p.7" transform=""/></g><defs><filter id="shadowFilter-p.7" filterUnits="userSpaceOnUse"><feGaussianBlur in="SourceAlpha" stdDeviation="2.5" result="blur"/><feComponentTransfer in="blur" color-interpolation-filters="sRGB"><feFuncR type="linear" slope="0" intercept="1.0"/><feFuncG type="linear" slope="0" intercept="0.8980392"/><feFuncB type="linear" slope="0" intercept="0.6"/><feFuncA type="linear" slope="0.5" intercept="0"/></feComponentTransfer></filter></defs><g id="p.7"><path fill="#000000" fill-opacity="0.0" d="m260.8247 221.17046l0 0c-16.012054 0 -28.992386 5.4411316 -28.992386 12.153107c0 6.711975 12.980331 12.153107 28.992386 12.153107c-13.694717 -1.217041 -23.49022 -6.2849274 -23.49022 -12.153107c0 -5.8681793 9.795502 -10.936066 23.49022 -12.153107z" fill-rule="evenodd"/><path stroke="#bf9000" stroke-width="4.0" stroke-linejoin="round" stroke-linecap="butt" d="m260.8247 221.17046l0 0c-16.012054 0 -28.992386 5.4411316 -28.992386 12.153107c0 6.711975 12.980331 12.153107 28.992386 12.153107c-13.694717 -1.217041 -23.49022 -6.2849274 -23.49022 -12.153107c0 -5.8681793 9.795502 -10.936066 23.49022 -12.153107z" fill-rule="evenodd"/></g><g filter="url(#shadowFilter-p.8)"><use xlink:href="#p.8" transform=""/></g><defs><filter id="shadowFilter-p.8" filterUnits="userSpaceOnUse"><feGaussianBlur in="SourceAlpha" stdDeviation="2.5" result="blur"/><feComponentTransfer in="blur" color-interpolation-filters="sRGB"><feFuncR type="linear" slope="0" intercept="1.0"/><feFuncG type="linear" slope="0" intercept="0.8980392"/><feFuncB type="linear" slope="0" intercept="0.6"/><feFuncA type="linear" slope="0.5" intercept="0"/></feComponentTransfer></filter></defs><g id="p.8"><path fill="#000000" fill-opacity="0.0" d="m205.66629 245.47667l0 0c16.012054 0 28.992386 -5.4411316 28.992386 -12.153107c0 -6.711975 -12.980331 -12.153107 -28.992386 -12.153107c13.694717 1.217041 23.490204 6.2849274 23.490204 12.153107c0 5.8681793 -9.795486 10.936066 -23.490204 12.153107z" fill-rule="evenodd"/><path stroke="#bf9000" stroke-width="4.0" stroke-linejoin="round" stroke-linecap="butt" d="m205.66629 245.47667l0 0c16.012054 0 28.992386 -5.4411316 28.992386 -12.153107c0 -6.711975 -12.980331 -12.153107 -28.992386 -12.153107c13.694717 1.217041 23.490204 6.2849274 23.490204 12.153107c0 5.8681793 -9.795486 10.936066 -23.490204 12.153107z" fill-rule="evenodd"/></g><g filter="url(#shadowFilter-p.9)"><use xlink:href="#p.9" transform=""/></g><defs><filter id="shadowFilter-p.9" filterUnits="userSpaceOnUse"><feGaussianBlur in="SourceAlpha" stdDeviation="2.5" result="blur"/><feComponentTransfer in="blur" color-interpolation-filters="sRGB"><feFuncR type="linear" slope="0" intercept="1.0"/><feFuncG type="linear" slope="0" intercept="0.8980392"/><feFuncB type="linear" slope="0" intercept="0.6"/><feFuncA type="linear" slope="0.5" intercept="0"/></feComponentTransfer></filter></defs><g id="p.9"><path fill="#000000" fill-opacity="0.0" d="m294.70386 96.95018l0 65.95653l0 0c0 36.42679 -27.516266 65.95654 -61.45932 65.95654c-33.94304 0 -61.45932 -29.529755 -61.45932 -65.95654l0 -65.95653z" fill-rule="evenodd"/><path stroke="#bf9000" stroke-width="4.0" stroke-linejoin="round" stroke-linecap="butt" d="m294.70386 96.95018l0 65.95653l0 0c0 36.42679 -27.516266 65.95654 -61.45932 65.95654c-33.94304 0 -61.45932 -29.529755 -61.45932 -65.95654l0 -65.95653z" fill-rule="evenodd"/></g><g filter="url(#shadowFilter-p.10)"><use xlink:href="#p.10" transform=""/></g><defs><filter id="shadowFilter-p.10" filterUnits="userSpaceOnUse"><feGaussianBlur in="SourceAlpha" stdDeviation="2.5" result="blur"/><feComponentTransfer in="blur" color-interpolation-filters="sRGB"><feFuncR type="linear" slope="0" intercept="1.0"/><feFuncG type="linear" slope="0" intercept="0.8980392"/><feFuncB type="linear" slope="0" intercept="0.6"/><feFuncA type="linear" slope="0.5" intercept="0"/></feComponentTransfer></filter></defs><g id="p.10"><path fill="#000000" fill-opacity="0.0" d="m294.70386 369.53796l0 -65.95654l0 0c0 -36.42679 -27.516266 -65.95654 -61.45932 -65.95654c-33.94304 0 -61.45932 29.529755 -61.45932 65.95654l0 65.95654z" fill-rule="evenodd"/><path stroke="#bf9000" stroke-width="4.0" stroke-linejoin="round" stroke-linecap="butt" d="m294.70386 369.53796l0 -65.95654l0 0c0 -36.42679 -27.516266 -65.95654 -61.45932 -65.95654c-33.94304 0 -61.45932 29.529755 -61.45932 65.95654l0 65.95654z" fill-rule="evenodd"/></g><path fill="#212529" d="m205.71783 245.39523l0 0c16.012054 0 28.992386 -5.4411163 28.992386 -12.153091c0 -6.711975 -12.980331 -12.153107 -28.992386 -12.153107c13.694717 1.217041 23.49022 6.2849274 23.49022 12.153107c0 5.8681793 -9.795502 10.93605 -23.49022 12.153091z" fill-rule="evenodd"/><path fill="#212529" d="m260.768 221.08904l0 0c-16.01207 0 -28.992401 5.4411316 -28.992401 12.153107c0 6.711975 12.980331 12.153091 28.992401 12.153091c-13.694733 -1.217041 -23.49022 -6.284912 -23.49022 -12.153091c0 -5.8681793 9.795486 -10.936066 23.49022 -12.153107z" fill-rule="evenodd"/><path fill="#212529" d="m294.70557 96.951195l0 65.956535l0 0c0 36.42679 -27.516266 65.95654 -61.459305 65.95654c-33.943054 0 -61.45932 -29.529755 -61.45932 -65.95654l0 -65.956535z" fill-rule="evenodd"/><path fill="#212529" d="m294.70215 369.53897l0 -65.95654l0 0c0 -36.42679 -27.516296 -65.95653 -61.459335 -65.95653c-33.94304 0 -61.459305 29.52974 -61.459305 65.95653l0 65.95654z" fill-rule="evenodd"/><g filter="url(#shadowFilter-p.11)"><use xlink:href="#p.11" transform=""/></g><defs><filter id="shadowFilter-p.11" filterUnits="userSpaceOnUse"><feGaussianBlur in="SourceAlpha" stdDeviation="2.5" result="blur"/><feComponentTransfer in="blur" color-interpolation-filters="sRGB"><feFuncR type="linear" slope="0" intercept="1.0"/><feFuncG type="linear" slope="0" intercept="0.8980392"/><feFuncB type="linear" slope="0" intercept="0.6"/><feFuncA type="linear" slope="0.5" intercept="0"/></feComponentTransfer></filter></defs><g id="p.11"><path fill="#000000" fill-opacity="0.0" d="m228.45923 362.2337l4.783951 -145.21838l4.783951 145.21838z" fill-rule="evenodd"/><path stroke="#bf9000" stroke-width="4.0" stroke-linejoin="round" stroke-linecap="butt" d="m228.45923 362.2337l4.783951 -145.21838l4.783951 145.21838z" fill-rule="evenodd"/></g><g filter="url(#shadowFilter-p.12)"><use xlink:href="#p.12" transform=""/></g><defs><filter id="shadowFilter-p.12" filterUnits="userSpaceOnUse"><feGaussianBlur in="SourceAlpha" stdDeviation="2.5" result="blur"/><feComponentTransfer in="blur" color-interpolation-filters="sRGB"><feFuncR type="linear" slope="0" intercept="1.0"/><feFuncG type="linear" slope="0" intercept="0.8980392"/><feFuncB type="linear" slope="0" intercept="0.6"/><feFuncA type="linear" slope="0.5" intercept="0"/></feComponentTransfer></filter></defs><g id="p.12"><path fill="#000000" fill-opacity="0.0" d="m238.02849 223.52344l-4.783951 4.7635345l-4.783951 -4.7635345z" fill-rule="evenodd"/><path stroke="#bf9000" stroke-width="4.0" stroke-linejoin="round" stroke-linecap="butt" d="m238.02849 223.52344l-4.783951 4.7635345l-4.783951 -4.7635345z" fill-rule="evenodd"/></g><g filter="url(#shadowFilter-p.13)"><use xlink:href="#p.13" transform=""/></g><defs><filter id="shadowFilter-p.13" filterUnits="userSpaceOnUse"><feGaussianBlur in="SourceAlpha" stdDeviation="2.5" result="blur"/><feComponentTransfer in="blur" color-interpolation-filters="sRGB"><feFuncR type="linear" slope="0" intercept="1.0"/><feFuncG type="linear" slope="0" intercept="0.8980392"/><feFuncB type="linear" slope="0" intercept="0.6"/><feFuncA type="linear" slope="0.5" intercept="0"/></feComponentTransfer></filter></defs><g id="p.13"><path fill="#000000" fill-opacity="0.0" d="m173.97012 364.4078l59.27356 -38.47464l59.27353 38.47464z" fill-rule="evenodd"/><path stroke="#bf9000" stroke-width="4.0" stroke-linejoin="round" stroke-linecap="butt" d="m173.97012 364.4078l59.27356 -38.47464l59.27353 38.47464z" fill-rule="evenodd"/></g><g filter="url(#shadowFilter-p.14)"><use xlink:href="#p.14" transform=""/></g><defs><filter id="shadowFilter-p.14" filterUnits="userSpaceOnUse"><feGaussianBlur in="SourceAlpha" stdDeviation="2.5" result="blur"/><feComponentTransfer in="blur" color-interpolation-filters="sRGB"><feFuncR type="linear" slope="0" intercept="1.0"/><feFuncG type="linear" slope="0" intercept="0.8980392"/><feFuncB type="linear" slope="0" intercept="0.6"/><feFuncA type="linear" slope="0.5" intercept="0"/></feComponentTransfer></filter></defs><g id="p.14"><path fill="#000000" fill-opacity="0.0" d="m202.74876 185.67815l0 0c-15.23764 -2.205841 -27.027039 -9.462509 -26.332352 -16.208206q0.7011719 -6.808609 -1.7669373 -14.076004q15.235245 3.6294556 30.61499 5.8558655l0 0c15.23764 2.205841 27.027023 9.462509 26.332336 16.208206l0 0c-0.6946869 6.745697 -13.610397 10.42598 -28.848038 8.220139z" fill-rule="evenodd"/><path stroke="#bf9000" stroke-width="4.0" stroke-linejoin="round" stroke-linecap="butt" d="m202.74876 185.67815l0 0c-15.23764 -2.205841 -27.027039 -9.462509 -26.332352 -16.208206q0.7011719 -6.808609 -1.7669373 -14.076004q15.235245 3.6294556 30.61499 5.8558655l0 0c15.23764 2.205841 27.027023 9.462509 26.332336 16.208206l0 0c-0.6946869 6.745697 -13.610397 10.42598 -28.848038 8.220139z" fill-rule="evenodd"/></g><g filter="url(#shadowFilter-p.15)"><use xlink:href="#p.15" transform=""/></g><defs><filter id="shadowFilter-p.15" filterUnits="userSpaceOnUse"><feGaussianBlur in="SourceAlpha" stdDeviation="2.5" result="blur"/><feComponentTransfer in="blur" color-interpolation-filters="sRGB"><feFuncR type="linear" slope="0" intercept="1.0"/><feFuncG type="linear" slope="0" intercept="0.8980392"/><feFuncB type="linear" slope="0" intercept="0.6"/><feFuncA type="linear" slope="0.5" intercept="0"/></feComponentTransfer></filter></defs><g id="p.15"><path fill="#000000" fill-opacity="0.0" d="m292.37042 155.1424l0 0c0 38.05925 -26.385345 68.91235 -58.93332 68.91235c-32.547974 0 -58.933304 -30.853104 -58.933304 -68.91235l0 0c13.912262 21.690659 35.746185 34.456177 58.933304 34.456177c23.187103 0 45.021057 -12.765518 58.93332 -34.456177z" fill-rule="evenodd"/><path stroke="#bf9000" stroke-width="4.0" stroke-linejoin="round" stroke-linecap="butt" d="m292.37042 155.1424l0 0c0 38.05925 -26.385345 68.91235 -58.93332 68.91235c-32.547974 0 -58.933304 -30.853104 -58.933304 -68.91235l0 0c13.912262 21.690659 35.746185 34.456177 58.933304 34.456177c23.187103 0 45.021057 -12.765518 58.93332 -34.456177z" fill-rule="evenodd"/></g><g filter="url(#shadowFilter-p.16)"><use xlink:href="#p.16" transform=""/></g><defs><filter id="shadowFilter-p.16" filterUnits="userSpaceOnUse"><feGaussianBlur in="SourceAlpha" stdDeviation="2.5" result="blur"/><feComponentTransfer in="blur" color-interpolation-filters="sRGB"><feFuncR type="linear" slope="0" intercept="1.0"/><feFuncG type="linear" slope="0" intercept="0.8980392"/><feFuncB type="linear" slope="0" intercept="0.6"/><feFuncA type="linear" slope="0.5" intercept="0"/></feComponentTransfer></filter></defs><g id="p.16"><path fill="#000000" fill-opacity="0.0" d="m264.1696 185.67815l0 0c15.23764 -2.205841 27.027039 -9.462509 26.332336 -16.208206q-0.7011719 -6.808609 1.7669373 -14.076004q-15.2352295 3.6294556 -30.61499 5.8558655l0 0c-15.237625 2.205841 -27.027023 9.462509 -26.332336 16.208206l0 0c0.6946869 6.745697 13.610397 10.42598 28.848053 8.220139z" fill-rule="evenodd"/><path stroke="#bf9000" stroke-width="4.0" stroke-linejoin="round" stroke-linecap="butt" d="m264.1696 185.67815l0 0c15.23764 -2.205841 27.027039 -9.462509 26.332336 -16.208206q-0.7011719 -6.808609 1.7669373 -14.076004q-15.2352295 3.6294556 -30.61499 5.8558655l0 0c-15.237625 2.205841 -27.027023 9.462509 -26.332336 16.208206l0 0c0.6946869 6.745697 13.610397 10.42598 28.848053 8.220139z" fill-rule="evenodd"/></g><g filter="url(#shadowFilter-p.17)"><use xlink:href="#p.17" transform=""/></g><defs><filter id="shadowFilter-p.17" filterUnits="userSpaceOnUse"><feGaussianBlur in="SourceAlpha" stdDeviation="2.5" result="blur"/><feComponentTransfer in="blur" color-interpolation-filters="sRGB"><feFuncR type="linear" slope="0" intercept="1.0"/><feFuncG type="linear" slope="0" intercept="0.8980392"/><feFuncB type="linear" slope="0" intercept="0.6"/><feFuncA type="linear" slope="0.5" intercept="0"/></feComponentTransfer></filter></defs><g id="p.17"><path fill="#000000" fill-opacity="0.0" d="m236.88072 173.11554l0 0c0 2.5094147 -1.5417633 4.543686 -3.4436188 4.543686c-1.9018555 0 -3.4436188 -2.0342712 -3.4436188 -4.543686l0 0c0.51982117 1.9201355 1.8983154 3.2018433 3.4436188 3.2018433c1.5453033 0 2.9237976 -1.2817078 3.4436188 -3.2018433z" fill-rule="evenodd"/><path stroke="#bf9000" stroke-width="4.0" stroke-linejoin="round" stroke-linecap="butt" d="m236.88072 173.11554l0 0c0 2.5094147 -1.5417633 4.543686 -3.4436188 4.543686c-1.9018555 0 -3.4436188 -2.0342712 -3.4436188 -4.543686l0 0c0.51982117 1.9201355 1.8983154 3.2018433 3.4436188 3.2018433c1.5453033 0 2.9237976 -1.2817078 3.4436188 -3.2018433z" fill-rule="evenodd"/></g><g filter="url(#shadowFilter-p.18)"><use xlink:href="#p.18" transform=""/></g><defs><filter id="shadowFilter-p.18" filterUnits="userSpaceOnUse"><feGaussianBlur in="SourceAlpha" stdDeviation="2.5" result="blur"/><feComponentTransfer in="blur" color-interpolation-filters="sRGB"><feFuncR type="linear" slope="0" intercept="1.0"/><feFuncG type="linear" slope="0" intercept="0.8980392"/><feFuncB type="linear" slope="0" intercept="0.6"/><feFuncA type="linear" slope="0.5" intercept="0"/></feComponentTransfer></filter></defs><g id="p.18"><path fill="#000000" fill-opacity="0.0" d="m199.88759 176.83273l67.099014 0l0 22.86493l-67.099014 0z" fill-rule="evenodd"/><path stroke="#bf9000" stroke-width="4.0" stroke-linejoin="round" stroke-linecap="butt" d="m199.88759 176.83273l67.099014 0l0 22.86493l-67.099014 0z" fill-rule="evenodd"/></g><g filter="url(#shadowFilter-p.19)"><use xlink:href="#p.19" transform=""/></g><defs><filter id="shadowFilter-p.19" filterUnits="userSpaceOnUse"><feGaussianBlur in="SourceAlpha" stdDeviation="2.5" result="blur"/><feComponentTransfer in="blur" color-interpolation-filters="sRGB"><feFuncR type="linear" slope="0" intercept="1.0"/><feFuncG type="linear" slope="0" intercept="0.8980392"/><feFuncB type="linear" slope="0" intercept="0.6"/><feFuncA type="linear" slope="0.5" intercept="0"/></feComponentTransfer></filter></defs><g id="p.19"><path fill="#000000" fill-opacity="0.0" d="m207.12149 141.83438l5.9387054 1.4656982l-4.49527 25.381058l-5.93869 -1.4656982z" fill-rule="evenodd"/><path stroke="#bf9000" stroke-width="1.0" stroke-linejoin="round" stroke-linecap="butt" d="m207.12149 141.83438l5.9387054 1.4656982l-4.49527 25.381058l-5.93869 -1.4656982z" fill-rule="evenodd"/></g><g filter="url(#shadowFilter-p.20)"><use xlink:href="#p.20" transform=""/></g><defs><filter id="shadowFilter-p.20" filterUnits="userSpaceOnUse"><feGaussianBlur in="SourceAlpha" stdDeviation="2.5" result="blur"/><feComponentTransfer in="blur" color-interpolation-filters="sRGB"><feFuncR type="linear" slope="0" intercept="1.0"/><feFuncG type="linear" slope="0" intercept="0.8980392"/><feFuncB type="linear" slope="0" intercept="0.6"/><feFuncA type="linear" slope="0.5" intercept="0"/></feComponentTransfer></filter></defs><g id="p.20"><path fill="#000000" fill-opacity="0.0" d="m223.36574 146.2072l5.9387054 1.4656982l-4.47464 25.381058l-5.9387054 -1.4656982z" fill-rule="evenodd"/><path stroke="#bf9000" stroke-width="1.0" stroke-linejoin="round" stroke-linecap="butt" d="m223.36574 146.2072l5.9387054 1.4656982l-4.47464 25.381058l-5.9387054 -1.4656982z" fill-rule="evenodd"/></g><g filter="url(#shadowFilter-p.21)"><use xlink:href="#p.21" transform=""/></g><defs><filter id="shadowFilter-p.21" filterUnits="userSpaceOnUse"><feGaussianBlur in="SourceAlpha" stdDeviation="2.5" result="blur"/><feComponentTransfer in="blur" color-interpolation-filters="sRGB"><feFuncR type="linear" slope="0" intercept="1.0"/><feFuncG type="linear" slope="0" intercept="0.8980392"/><feFuncB type="linear" slope="0" intercept="0.6"/><feFuncA type="linear" slope="0.5" intercept="0"/></feComponentTransfer></filter></defs><g id="p.21"><path fill="#000000" fill-opacity="0.0" d="m244.9554 134.9394l11.659561 -3.3237305l4.6344604 22.930847l5.3935547 -1.5375061l2.6033325 12.8811035l-17.053116 4.8612366z" fill-rule="evenodd"/><path stroke="#bf9000" stroke-width="1.0" stroke-linejoin="round" stroke-linecap="butt" d="m244.9554 134.9394l11.659561 -3.3237305l4.6344604 22.930847l5.3935547 -1.5375061l2.6033325 12.8811035l-17.053116 4.8612366z" fill-rule="evenodd"/></g><path fill="#212529" d="m228.46095 362.23196l4.783951 -145.2184l4.783951 145.2184z" fill-rule="evenodd"/><g filter="url(#shadowFilter-p.22)"><use xlink:href="#p.22" transform="matrix(1.0 0.0 0.0 1.0 0.0 2.0)"/></g><defs><filter id="shadowFilter-p.22" filterUnits="userSpaceOnUse"><feGaussianBlur in="SourceAlpha" stdDeviation="2.5" result="blur"/><feComponentTransfer in="blur" color-interpolation-filters="sRGB"><feFuncR type="linear" slope="0" intercept="0.0"/><feFuncG type="linear" slope="0" intercept="0.0"/><feFuncB type="linear" slope="0" intercept="0.0"/><feFuncA type="linear" slope="0.5" intercept="0"/></feComponentTransfer></filter></defs><g id="p.22"><path fill="#212529" d="m238.03021 223.5217l-4.783951 4.7635193l-4.783951 -4.7635193z" fill-rule="evenodd"/></g><path fill="#212529" d="m173.97185 364.40607l59.273544 -38.47464l59.27356 38.47464z" fill-rule="evenodd"/><path fill="#212529" d="m202.75049 185.67639l0 0c-15.237656 -2.205841 -27.027039 -9.462494 -26.332352 -16.208206q0.7011719 -6.808609 -1.7669525 -14.076004q15.23526 3.6294556 30.61499 5.8558655l0 0c15.23764 2.2058563 27.027039 9.462509 26.332352 16.208206l0 0c-0.6946869 6.7457123 -13.610397 10.425995 -28.848038 8.220139z" fill-rule="evenodd"/><path fill="#212529" d="m292.37213 155.14064l0 0c0 38.05925 -26.385345 68.91237 -58.933304 68.91237c-32.547974 0 -58.93332 -30.853119 -58.93332 -68.91237l0 0c13.912277 21.690674 35.7462 34.456192 58.93332 34.456192c23.187119 0 45.02104 -12.765518 58.933304 -34.456192z" fill-rule="evenodd"/><path fill="#212529" d="m264.1713 185.67639l0 0c15.23764 -2.205841 27.027039 -9.462494 26.332336 -16.208206q-0.7011719 -6.808609 1.7669678 -14.076004q-15.23526 3.6294556 -30.61499 5.8558655l0 0c-15.237656 2.2058563 -27.027039 9.462509 -26.332352 16.208206l0 0c0.6946869 6.7457123 13.610397 10.425995 28.848038 8.220139z" fill-rule="evenodd"/><g filter="url(#shadowFilter-p.23)"><use xlink:href="#p.23" transform="matrix(1.0 0.0 0.0 1.0 0.0 2.0)"/></g><defs><filter id="shadowFilter-p.23" filterUnits="userSpaceOnUse"><feGaussianBlur in="SourceAlpha" stdDeviation="2.5" result="blur"/><feComponentTransfer in="blur" color-interpolation-filters="sRGB"><feFuncR type="linear" slope="0" intercept="0.0"/><feFuncG type="linear" slope="0" intercept="0.0"/><feFuncB type="linear" slope="0" intercept="0.0"/><feFuncA type="linear" slope="0.5" intercept="0"/></feComponentTransfer></filter></defs><g id="p.23"><path fill="#212529" d="m236.88245 173.1138l0 0c0 2.5093994 -1.5417633 4.5436707 -3.4436188 4.5436707c-1.9018707 0 -3.4436188 -2.0342712 -3.4436188 -4.5436707l0 0c0.5198059 1.9201355 1.8983002 3.201828 3.4436188 3.201828c1.5453033 0 2.9237976 -1.2816925 3.4436188 -3.201828z" fill-rule="evenodd"/></g><path fill="#212529" d="m199.88931 176.83098l67.09903 0l0 22.86493l-67.09903 0z" fill-rule="evenodd"/><g filter="url(#shadowFilter-p.24)"><use xlink:href="#p.24" transform=""/></g><defs><filter id="shadowFilter-p.24" filterUnits="userSpaceOnUse"><feGaussianBlur in="SourceAlpha" stdDeviation="2.5" result="blur"/><feComponentTransfer in="blur" color-interpolation-filters="sRGB"><feFuncR type="linear" slope="0" intercept="1.0"/><feFuncG type="linear" slope="0" intercept="0.8980392"/><feFuncB type="linear" slope="0" intercept="0.6"/><feFuncA type="linear" slope="0.5" intercept="0"/></feComponentTransfer></filter></defs><g id="p.24"><path fill="#000000" fill-opacity="0.0" d="m206.85306 141.67686l6.9561768 1.714386l1.0412292 -0.67807007l0.79045105 -4.4785156l0 0l-8.722458 -2.1496887l0 0l-0.79045105 4.4785156z" fill-rule="evenodd"/><path stroke="#bf9000" stroke-width="1.0" stroke-linejoin="round" stroke-linecap="butt" d="m206.85306 141.67686l6.9561768 1.714386l1.0412292 -0.67807007l0.79045105 -4.4785156l0 0l-8.722458 -2.1496887l0 0l-0.79045105 4.4785156z" fill-rule="evenodd"/></g><g filter="url(#shadowFilter-p.25)"><use xlink:href="#p.25" transform=""/></g><defs><filter id="shadowFilter-p.25" filterUnits="userSpaceOnUse"><feGaussianBlur in="SourceAlpha" stdDeviation="2.5" result="blur"/><feComponentTransfer in="blur" color-interpolation-filters="sRGB"><feFuncR type="linear" slope="0" intercept="1.0"/><feFuncG type="linear" slope="0" intercept="0.8980392"/><feFuncB type="linear" slope="0" intercept="0.6"/><feFuncA type="linear" slope="0.5" intercept="0"/></feComponentTransfer></filter></defs><g id="p.25"><path fill="#000000" fill-opacity="0.0" d="m223.10715 146.04893l6.9561768 1.714386l1.0412292 -0.67807007l0.79045105 -4.4785004l0 0l-8.722458 -2.149704l0 0l-0.79045105 4.4785156z" fill-rule="evenodd"/><path stroke="#bf9000" stroke-width="1.0" stroke-linejoin="round" stroke-linecap="butt" d="m223.10715 146.04893l6.9561768 1.714386l1.0412292 -0.67807007l0.79045105 -4.4785004l0 0l-8.722458 -2.149704l0 0l-0.79045105 4.4785156z" fill-rule="evenodd"/></g><g filter="url(#shadowFilter-p.26)"><use xlink:href="#p.26" transform=""/></g><defs><filter id="shadowFilter-p.26" filterUnits="userSpaceOnUse"><feGaussianBlur in="SourceAlpha" stdDeviation="2.5" result="blur"/><feComponentTransfer in="blur" color-interpolation-filters="sRGB"><feFuncR type="linear" slope="0" intercept="1.0"/><feFuncG type="linear" slope="0" intercept="0.8980392"/><feFuncB type="linear" slope="0" intercept="0.6"/><feFuncA type="linear" slope="0.5" intercept="0"/></feComponentTransfer></filter></defs><g id="p.26"><path fill="#000000" fill-opacity="0.0" d="m206.64249 126.87603l29.198593 7.230797l-1.5465393 8.818634l-29.198593 -7.230789z" fill-rule="evenodd"/><path stroke="#bf9000" stroke-width="1.0" stroke-linejoin="round" stroke-linecap="butt" d="m206.64249 126.87603l29.198593 7.230797l-1.5465393 8.818634l-29.198593 -7.230789z" fill-rule="evenodd"/></g><g filter="url(#shadowFilter-p.27)"><use xlink:href="#p.27" transform=""/></g><defs><filter id="shadowFilter-p.27" filterUnits="userSpaceOnUse"><feGaussianBlur in="SourceAlpha" stdDeviation="2.5" result="blur"/><feComponentTransfer in="blur" color-interpolation-filters="sRGB"><feFuncR type="linear" slope="0" intercept="1.0"/><feFuncG type="linear" slope="0" intercept="0.8980392"/><feFuncB type="linear" slope="0" intercept="0.6"/><feFuncA type="linear" slope="0.5" intercept="0"/></feComponentTransfer></filter></defs><g id="p.27"><path fill="#000000" fill-opacity="0.0" d="m244.46356 132.49593l1.6908722 -0.48857117l0.47427368 2.3695526l-1.6908875 0.48857117z" fill-rule="evenodd"/><path stroke="#bf9000" stroke-width="1.0" stroke-linejoin="round" stroke-linecap="butt" d="m244.46356 132.49593l1.6908722 -0.48857117l0.47427368 2.3695526l-1.6908875 0.48857117z" fill-rule="evenodd"/></g><g filter="url(#shadowFilter-p.28)"><use xlink:href="#p.28" transform=""/></g><defs><filter id="shadowFilter-p.28" filterUnits="userSpaceOnUse"><feGaussianBlur in="SourceAlpha" stdDeviation="2.5" result="blur"/><feComponentTransfer in="blur" color-interpolation-filters="sRGB"><feFuncR type="linear" slope="0" intercept="1.0"/><feFuncG type="linear" slope="0" intercept="0.8980392"/><feFuncB type="linear" slope="0" intercept="0.6"/><feFuncA type="linear" slope="0.5" intercept="0"/></feComponentTransfer></filter></defs><g id="p.28"><path fill="#000000" fill-opacity="0.0" d="m251.41508 130.59074l1.6908875 -0.48857117l0.47425842 2.3695526l-1.6908722 0.48857117z" fill-rule="evenodd"/><path stroke="#bf9000" stroke-width="1.0" stroke-linejoin="round" stroke-linecap="butt" d="m251.41508 130.59074l1.6908875 -0.48857117l0.47425842 2.3695526l-1.6908722 0.48857117z" fill-rule="evenodd"/></g><g filter="url(#shadowFilter-p.29)"><use xlink:href="#p.29" transform=""/></g><defs><filter id="shadowFilter-p.29" filterUnits="userSpaceOnUse"><feGaussianBlur in="SourceAlpha" stdDeviation="2.5" result="blur"/><feComponentTransfer in="blur" color-interpolation-filters="sRGB"><feFuncR type="linear" slope="0" intercept="1.0"/><feFuncG type="linear" slope="0" intercept="0.8980392"/><feFuncB type="linear" slope="0" intercept="0.6"/><feFuncA type="linear" slope="0.5" intercept="0"/></feComponentTransfer></filter></defs><g id="p.29"><path fill="#000000" fill-opacity="0.0" d="m247.99359 131.4496l1.6083984 -0.46414185l0.47427368 2.3695526l-1.6083984 0.4641266z" fill-rule="evenodd"/><path stroke="#bf9000" stroke-width="1.0" stroke-linejoin="round" stroke-linecap="butt" d="m247.99359 131.4496l1.6083984 -0.46414185l0.47427368 2.3695526l-1.6083984 0.4641266z" fill-rule="evenodd"/></g><g filter="url(#shadowFilter-p.30)"><use xlink:href="#p.30" transform=""/></g><defs><filter id="shadowFilter-p.30" filterUnits="userSpaceOnUse"><feGaussianBlur in="SourceAlpha" stdDeviation="2.5" result="blur"/><feComponentTransfer in="blur" color-interpolation-filters="sRGB"><feFuncR type="linear" slope="0" intercept="1.0"/><feFuncG type="linear" slope="0" intercept="0.8980392"/><feFuncB type="linear" slope="0" intercept="0.6"/><feFuncA type="linear" slope="0.5" intercept="0"/></feComponentTransfer></filter></defs><g id="p.30"><path fill="#000000" fill-opacity="0.0" d="m250.00404 135.72148l3.0105896 -0.85498047l0.86605835 4.2749634l-3.0105896 0.85498047z" fill-rule="evenodd"/><path stroke="#bf9000" stroke-width="1.0" stroke-linejoin="round" stroke-linecap="butt" d="m250.00404 135.72148l3.0105896 -0.85498047l0.86605835 4.2749634l-3.0105896 0.85498047z" fill-rule="evenodd"/></g><g filter="url(#shadowFilter-p.31)"><use xlink:href="#p.31" transform=""/></g><defs><filter id="shadowFilter-p.31" filterUnits="userSpaceOnUse"><feGaussianBlur in="SourceAlpha" stdDeviation="2.5" result="blur"/><feComponentTransfer in="blur" color-interpolation-filters="sRGB"><feFuncR type="linear" slope="0" intercept="1.0"/><feFuncG type="linear" slope="0" intercept="0.8980392"/><feFuncB type="linear" slope="0" intercept="0.6"/><feFuncA type="linear" slope="0.5" intercept="0"/></feComponentTransfer></filter></defs><g id="p.31"><path fill="#000000" fill-opacity="0.0" d="m251.61415 142.46967l3.0105896 -0.85498047l0.86605835 4.274948l-3.0105743 0.8549957z" fill-rule="evenodd"/><path stroke="#bf9000" stroke-width="1.0" stroke-linejoin="round" stroke-linecap="butt" d="m251.61415 142.46967l3.0105896 -0.85498047l0.86605835 4.274948l-3.0105743 0.8549957z" fill-rule="evenodd"/></g><g filter="url(#shadowFilter-p.32)"><use xlink:href="#p.32" transform=""/></g><defs><filter id="shadowFilter-p.32" filterUnits="userSpaceOnUse"><feGaussianBlur in="SourceAlpha" stdDeviation="2.5" result="blur"/><feComponentTransfer in="blur" color-interpolation-filters="sRGB"><feFuncR type="linear" slope="0" intercept="1.0"/><feFuncG type="linear" slope="0" intercept="0.8980392"/><feFuncB type="linear" slope="0" intercept="0.6"/><feFuncA type="linear" slope="0.5" intercept="0"/></feComponentTransfer></filter></defs><g id="p.32"><path fill="#000000" fill-opacity="0.0" d="m253.0868 149.31993l3.0105743 -0.8549957l0.86605835 4.2749634l-3.0105743 0.8549957z" fill-rule="evenodd"/><path stroke="#bf9000" stroke-width="1.0" stroke-linejoin="round" stroke-linecap="butt" d="m253.0868 149.31993l3.0105743 -0.8549957l0.86605835 4.2749634l-3.0105743 0.8549957z" fill-rule="evenodd"/></g><g filter="url(#shadowFilter-p.33)"><use xlink:href="#p.33" transform=""/></g><defs><filter id="shadowFilter-p.33" filterUnits="userSpaceOnUse"><feGaussianBlur in="SourceAlpha" stdDeviation="2.5" result="blur"/><feComponentTransfer in="blur" color-interpolation-filters="sRGB"><feFuncR type="linear" slope="0" intercept="1.0"/><feFuncG type="linear" slope="0" intercept="0.8980392"/><feFuncB type="linear" slope="0" intercept="0.6"/><feFuncA type="linear" slope="0.5" intercept="0"/></feComponentTransfer></filter></defs><g id="p.33"><path fill="#000000" fill-opacity="0.0" d="m254.40652 129.64793l1.6908875 -0.48857117l0.47427368 2.3695526l-1.6908875 0.48857117z" fill-rule="evenodd"/><path stroke="#bf9000" stroke-width="1.0" stroke-linejoin="round" stroke-linecap="butt" d="m254.40652 129.64793l1.6908875 -0.48857117l0.47427368 2.3695526l-1.6908875 0.48857117z" fill-rule="evenodd"/></g><g filter="url(#shadowFilter-p.34)"><use xlink:href="#p.34" transform=""/></g><defs><filter id="shadowFilter-p.34" filterUnits="userSpaceOnUse"><feGaussianBlur in="SourceAlpha" stdDeviation="11.5" result="blur"/><feComponentTransfer in="blur" color-interpolation-filters="sRGB"><feFuncR type="linear" slope="0" intercept="1.0"/><feFuncG type="linear" slope="0" intercept="0.8980392"/><feFuncB type="linear" slope="0" intercept="0.6"/><feFuncA type="linear" slope="1.0" intercept="0"/></feComponentTransfer></filter></defs><g id="p.34"><path fill="#000000" fill-opacity="0.0" d="m420.78726 127.25771l529.1339 0l0 212.0315l-529.1339 0z" fill-rule="evenodd"/><path stroke="#bf9000" stroke-width="1.0" stroke-linejoin="round" stroke-linecap="butt" d="m420.78726 127.25771l529.1339 0l0 212.0315l-529.1339 0z" fill-rule="evenodd"/></g><g filter="url(#shadowFilter-p.35)"><use xlink:href="#p.35" transform=""/></g><defs><filter id="shadowFilter-p.35" filterUnits="userSpaceOnUse"><feGaussianBlur in="SourceAlpha" stdDeviation="11.5" result="blur"/><feComponentTransfer in="blur" color-interpolation-filters="sRGB"><feFuncR type="linear" slope="0" intercept="1.0"/><feFuncG type="linear" slope="0" intercept="0.8980392"/><feFuncB type="linear" slope="0" intercept="0.6"/><feFuncA type="linear" slope="1.0" intercept="0"/></feComponentTransfer></filter></defs><g id="p.35"><path fill="#000000" fill-opacity="0.0" d="m409.4802 131.28346l529.1339 0l0 203.71654l-529.1339 0z" fill-rule="evenodd"/><path stroke="#bf9000" stroke-width="2.0" stroke-linejoin="round" stroke-linecap="butt" d="m409.4802 131.28346l529.1339 0l0 203.71654l-529.1339 0z" fill-rule="evenodd"/></g><g filter="url(#shadowFilter-p.36)"><use xlink:href="#p.36" transform=""/></g><defs><filter id="shadowFilter-p.36" filterUnits="userSpaceOnUse"><feGaussianBlur in="SourceAlpha" stdDeviation="11.5" result="blur"/><feComponentTransfer in="blur" color-interpolation-filters="sRGB"><feFuncR type="linear" slope="0" intercept="1.0"/><feFuncG type="linear" slope="0" intercept="0.8980392"/><feFuncB type="linear" slope="0" intercept="0.6"/><feFuncA type="linear" slope="1.0" intercept="0"/></feComponentTransfer></filter></defs><g id="p.36"><path fill="#000000" fill-opacity="0.0" d="m397.79996 139.9217l529.1339 0l0 186.20473l-529.1339 0z" fill-rule="evenodd"/><path stroke="#bf9000" stroke-width="4.0" stroke-linejoin="round" stroke-linecap="butt" d="m397.79996 139.9217l529.1339 0l0 186.20473l-529.1339 0z" fill-rule="evenodd"/></g><g filter="url(#shadowFilter-p.37)"><use xlink:href="#p.37" transform=""/></g><defs><filter id="shadowFilter-p.37" filterUnits="userSpaceOnUse"><feGaussianBlur in="SourceAlpha" stdDeviation="5.5" result="blur"/><feComponentTransfer in="blur" color-interpolation-filters="sRGB"><feFuncR type="linear" slope="0" intercept="1.0"/><feFuncG type="linear" slope="0" intercept="0.8980392"/><feFuncB type="linear" slope="0" intercept="0.6"/><feFuncA type="linear" slope="0.5" intercept="0"/></feComponentTransfer></filter></defs><g id="p.37"><path fill="#000000" fill-opacity="0.0" d="m442.6719 139.92126l484.25198 0l0 186.20471l-484.25198 0z" fill-rule="evenodd"/><path fill="#000000" fill-opacity="0.0" d="m573.21136 197.45514l223.1731 0l0 71.99927l-223.1731 0l0 -71.99927z" fill-rule="nonzero"/><path fill="#bf9000" d="m613.8676 211.55675l0 43.546875l-6.921875 0l0 -19.203125l-21.953125 0l0 19.203125l-6.875 0l0 -43.546875l6.875 0l0 18.21875l21.953125 0l0 -18.21875l6.921875 0zm8.9574585 43.546875l0 -32.078125l6.75 0l0 32.078125l-6.75 0zm0 -37.34375l0 -7.421875l6.75 0l0 7.421875l-6.75 0zm26.24762 37.953125q-4.046875 0 -7.671875 -1.3125q-3.609375 -1.328125 -6.1875 -3.953125l2.515625 -4.546875q2.765625 2.453125 5.546875 3.5625q2.796875 1.109375 5.546875 1.109375q2.828125 0 4.609375 -1.078125q1.78125 -1.078125 1.78125 -3.15625q0 -1.53125 -0.921875 -2.265625q-0.921875 -0.75 -2.671875 -1.296875q-1.75 -0.546875 -4.203125 -1.21875q-3.4375 -1.046875 -5.765625 -2.171875q-2.328125 -1.140625 -3.5 -2.796875q-1.15625 -1.65625 -1.15625 -4.234375q0 -3.125 1.59375 -5.328125q1.59375 -2.21875 4.4375 -3.375q2.859375 -1.171875 6.59375 -1.171875q3.5 0 6.46875 1.078125q2.984375 1.0625 5.25 3.328125l-2.875 4.484375q-2.15625 -1.96875 -4.390625 -2.875q-2.234375 -0.921875 -4.8125 -0.921875q-1.46875 0 -2.828125 0.34375q-1.34375 0.328125 -2.234375 1.21875q-0.890625 0.890625 -0.890625 2.484375q0 1.28125 0.734375 2.078125q0.734375 0.796875 2.203125 1.359375q1.484375 0.546875 3.625 1.21875q3.75 1.109375 6.375 2.1875q2.640625 1.0625 4.078125 2.75q1.453125 1.6875 1.453125 4.625q0 4.671875 -3.46875 7.28125q-3.46875 2.59375 -9.234375 2.59375zm36.488342 -2.265625q-0.859375 0.421875 -2.15625 0.921875q-1.28125 0.484375 -2.90625 0.84375q-1.625 0.375 -3.328125 0.375q-2.09375 0 -3.875 -0.734375q-1.78125 -0.734375 -2.859375 -2.359375q-1.0625 -1.625 -1.0625 -4.203125l0 -20.046875l-4.234375 0l0 -5.21875l4.234375 0l0 -10.546875l6.75 0l0 10.546875l6.984375 0l0 5.21875l-6.984375 0l0 17.90625q0.125 1.65625 1.0625 2.453125q0.953125 0.796875 2.375 0.796875q1.40625 0 2.6875 -0.484375q1.296875 -0.5 1.90625 -0.796875l1.40625 5.328125zm18.640625 2.265625q-3.796875 0 -6.812561 -1.3125q-3.0 -1.328125 -5.171875 -3.65625q-2.171875 -2.328125 -3.34375 -5.296875q-1.15625 -2.984375 -1.15625 -6.34375q0 -3.375 1.15625 -6.375q1.171875 -3.015625 3.34375 -5.3125q2.171875 -2.296875 5.203125 -3.609375q3.046936 -1.328125 6.781311 -1.328125q3.75 0 6.78125 1.328125q3.03125 1.3125 5.203125 3.609375q2.1875 2.296875 3.34375 5.3125q1.171875 3.0 1.171875 6.375q0 3.359375 -1.171875 6.34375q-1.15625 2.96875 -3.34375 5.296875q-2.171875 2.328125 -5.203125 3.65625q-3.03125 1.3125 -6.78125 1.3125zm-9.562561 -16.5625q0 3.078125 1.28125 5.53125q1.296875 2.453125 3.437561 3.859375q2.15625 1.40625 4.84375 1.40625q2.640625 0 4.8125 -1.4375q2.1875 -1.4375 3.46875 -3.921875q1.296875 -2.484375 1.296875 -5.484375q0 -3.078125 -1.296875 -5.53125q-1.28125 -2.453125 -3.46875 -3.890625q-2.171875 -1.4375 -4.8125 -1.4375q-2.6875 0 -4.84375 1.46875q-2.140686 1.46875 -3.437561 3.890625q-1.28125 2.421875 -1.28125 5.546875zm32.075867 15.953125l0 -32.078125l6.75 0l0 32.078125l-6.75 0zm0 -37.34375l0 -7.421875l6.75 0l0 7.421875l-6.75 0zm32.87262 11.09375q-3.921875 0.0625 -6.96875 1.78125q-3.03125 1.71875 -4.3125 4.84375l0 19.625l-6.75 0l0 -32.078125l6.25 0l0 7.171875q1.65625 -3.3125 4.359375 -5.296875q2.703125 -2.0 5.703125 -2.171875q0.609375 0 1.0 0q0.40625 0 0.71875 0.0625l0 6.0625zm18.884766 26.859375q-3.734375 0 -6.78125 -1.3125q-3.03125 -1.328125 -5.234375 -3.625q-2.203125 -2.296875 -3.40625 -5.265625q-1.1875 -2.984375 -1.1875 -6.359375q0 -4.53125 2.078125 -8.296875q2.09375 -3.78125 5.828125 -6.078125q3.734375 -2.296875 8.765625 -2.296875q5.03125 0 8.671875 2.296875q3.65625 2.296875 5.671875 6.046875q2.03125 3.734375 2.03125 8.03125q0 0.734375 -0.0625 1.375q-0.0625 0.640625 -0.125 1.078125l-25.6875 0q0.1875 2.8125 1.5625 4.9375q1.375 2.109375 3.515625 3.3125q2.15625 1.1875 4.609375 1.1875q2.703125 0 5.125 -1.34375q2.421875 -1.34375 3.28125 -3.5625l5.765625 1.65625q-1.046875 2.328125 -3.171875 4.203125q-2.109375 1.875 -5.0 2.953125q-2.875 1.0625 -6.25 1.0625zm-9.625 -18.890625l19.375 0q-0.171875 -2.75 -1.5625 -4.859375q-1.375 -2.125 -3.5 -3.3125q-2.109375 -1.203125 -4.6875 -1.203125q-2.515625 0 -4.625 1.203125q-2.109375 1.1875 -3.46875 3.3125q-1.34375 2.109375 -1.53125 4.859375z" fill-rule="nonzero"/><path fill="#000000" fill-opacity="0.0" d="m796.38446 197.45514l0 0l0 71.99927l0 0l0 -71.99927z" fill-rule="nonzero"/><path fill="#bf9000" d="m573.21136 259.0903l223.1731 0l0 5.519989l-223.1731 0l0 -5.519989z" fill-rule="nonzero"/></g></g></svg>