<svg version="1.1" viewBox="0.0 0.0 968.6929133858267 466.3937007874016" fill="none" stroke="none" stroke-linecap="square" stroke-miterlimit="10" xmlns:xlink="http://www.w3.org/1999/xlink" xmlns="http://www.w3.org/2000/svg"><clipPath id="p.0"><path d="m0 0l968.69293 0l0 466.3937l-968.69293 0l0 -466.3937z" clip-rule="nonzero"/></clipPath><g clip-path="url(#p.0)"><path fill="#000000" fill-opacity="0.0" d="m0 0l968.69293 0l0 466.3937l-968.69293 0z" fill-rule="evenodd"/><path fill="#212529" d="m0 0.07611549l968.69293 0l0 466.3937l-968.69293 0z" fill-rule="evenodd"/><g filter="url(#shadowFilter-p.1)"><use xlink:href="#p.1" transform="matrix(1.0 0.0 0.0 1.0 4.0 0.0)"/></g><defs><filter id="shadowFilter-p.1" filterUnits="userSpaceOnUse"><feGaussianBlur in="SourceAlpha" stdDeviation="11.5" result="blur"/><feComponentTransfer in="blur" color-interpolation-filters="sRGB"><feFuncR type="linear" slope="0" intercept="0.4627451"/><feFuncG type="linear" slope="0" intercept="0.64705884"/><feFuncB type="linear" slope="0" intercept="0.6862745"/><feFuncA type="linear" slope="1.0" intercept="0"/></feComponentTransfer></filter></defs><g id="p.1"><path fill="#000000" fill-opacity="0.0" d="m18.897638 233.2441l108.21999 -187.54321l212.25294 0l108.21997 187.54321l-108.21997 187.54323l-212.25294 0z" fill-rule="evenodd"/><path stroke="#d0e0e3" stroke-width="1.0" stroke-linejoin="round" stroke-linecap="butt" d="m18.897638 233.2441l108.21999 -187.54321l212.25294 0l108.21997 187.54321l-108.21997 187.54323l-212.25294 0z" fill-rule="evenodd"/></g><g filter="url(#shadowFilter-p.2)"><use xlink:href="#p.2" transform=""/></g><defs><filter id="shadowFilter-p.2" filterUnits="userSpaceOnUse"><feGaussianBlur in="SourceAlpha" stdDeviation="11.5" result="blur"/><feComponentTransfer in="blur" color-interpolation-filters="sRGB"><feFuncR type="linear" slope="0" intercept="0.4627451"/><feFuncG type="linear" slope="0" intercept="0.64705884"/><feFuncB type="linear" slope="0" intercept="0.6862745"/><feFuncA type="linear" slope="1.0" intercept="0"/></feComponentTransfer></filter></defs><g id="p.2"><path fill="#000000" fill-opacity="0.0" d="m233.2441 447.59055l-187.54321 -108.21997l0 -212.25294l187.54321 -108.21999l187.54323 108.21999l0 212.25294z" fill-rule="evenodd"/><path stroke="#d0e0e3" stroke-width="1.0" stroke-linejoin="round" stroke-linecap="butt" d="m233.2441 447.59055l-187.54321 -108.21997l0 -212.25294l187.54321 -108.21999l187.54323 108.21999l0 212.25294z" fill-rule="evenodd"/></g><g filter="url(#shadowFilter-p.3)"><use xlink:href="#p.3" transform=""/></g><defs><filter id="shadowFilter-p.3" filterUnits="userSpaceOnUse"><feGaussianBlur in="SourceAlpha" stdDeviation="11.5" result="blur"/><feComponentTransfer in="blur" color-interpolation-filters="sRGB"><feFuncR type="linear" slope="0" intercept="0.4627451"/><feFuncG type="linear" slope="0" intercept="0.64705884"/><feFuncB type="linear" slope="0" intercept="0.6862745"/><feFuncA type="linear" slope="1.0" intercept="0"/></feComponentTransfer></filter></defs><g id="p.3"><path fill="#000000" fill-opacity="0.0" d="m29.700787 233.2441l101.69534 -176.23615l203.6959 0l101.69537 176.23615l-101.69537 176.23613l-203.6959 0z" fill-rule="evenodd"/><path stroke="#d0e0e3" stroke-width="2.0" stroke-linejoin="round" stroke-linecap="butt" d="m29.700787 233.2441l101.69534 -176.23615l203.6959 0l101.69537 176.23615l-101.69537 176.23613l-203.6959 0z" fill-rule="evenodd"/></g><g filter="url(#shadowFilter-p.4)"><use xlink:href="#p.4" transform=""/></g><defs><filter id="shadowFilter-p.4" filterUnits="userSpaceOnUse"><feGaussianBlur in="SourceAlpha" stdDeviation="11.5" result="blur"/><feComponentTransfer in="blur" color-interpolation-filters="sRGB"><feFuncR type="linear" slope="0" intercept="0.4627451"/><feFuncG type="linear" slope="0" intercept="0.64705884"/><feFuncB type="linear" slope="0" intercept="0.6862745"/><feFuncA type="linear" slope="1.0" intercept="0"/></feComponentTransfer></filter></defs><g id="p.4"><path fill="#000000" fill-opacity="0.0" d="m233.2441 436.7874l-176.23615 -101.69537l0 -203.6959l176.23615 -101.69534l176.23613 101.69534l0 203.6959z" fill-rule="evenodd"/><path stroke="#d0e0e3" stroke-width="2.0" stroke-linejoin="round" stroke-linecap="butt" d="m233.2441 436.7874l-176.23615 -101.69537l0 -203.6959l176.23615 -101.69534l176.23613 101.69534l0 203.6959z" fill-rule="evenodd"/></g><g filter="url(#shadowFilter-p.5)"><use xlink:href="#p.5" transform=""/></g><defs><filter id="shadowFilter-p.5" filterUnits="userSpaceOnUse"><feGaussianBlur in="SourceAlpha" stdDeviation="11.5" result="blur"/><feComponentTransfer in="blur" color-interpolation-filters="sRGB"><feFuncR type="linear" slope="0" intercept="0.4627451"/><feFuncG type="linear" slope="0" intercept="0.64705884"/><feFuncB type="linear" slope="0" intercept="0.6862745"/><feFuncA type="linear" slope="1.0" intercept="0"/></feComponentTransfer></filter></defs><g id="p.5"><path fill="#000000" fill-opacity="0.0" d="m233.2441 421.43307l-164.36212 -94.84357l0 -186.69083l164.36212 -94.84357l164.36214 94.84357l0 186.69083z" fill-rule="evenodd"/><path stroke="#d0e0e3" stroke-width="4.0" stroke-linejoin="round" stroke-linecap="butt" d="m233.2441 421.43307l-164.36212 -94.84357l0 -186.69083l164.36212 -94.84357l164.36214 94.84357l0 186.69083z" fill-rule="evenodd"/></g><g filter="url(#shadowFilter-p.6)"><use xlink:href="#p.6" transform=""/></g><defs><filter id="shadowFilter-p.6" filterUnits="userSpaceOnUse"><feGaussianBlur in="SourceAlpha" stdDeviation="11.5" result="blur"/><feComponentTransfer in="blur" color-interpolation-filters="sRGB"><feFuncR type="linear" slope="0" intercept="0.4627451"/><feFuncG type="linear" slope="0" intercept="0.64705884"/><feFuncB type="linear" slope="0" intercept="0.6862745"/><feFuncA type="linear" slope="1.0" intercept="0"/></feComponentTransfer></filter></defs><g id="p.6"><path fill="#000000" fill-opacity="0.0" d="m420.78726 127.25771l529.1339 0l0 212.0315l-529.1339 0z" fill-rule="evenodd"/><path stroke="#d0e0e3" stroke-width="1.0" stroke-linejoin="round" stroke-linecap="butt" d="m420.78726 127.25771l529.1339 0l0 212.0315l-529.1339 0z" fill-rule="evenodd"/></g><g filter="url(#shadowFilter-p.7)"><use xlink:href="#p.7" transform=""/></g><defs><filter id="shadowFilter-p.7" filterUnits="userSpaceOnUse"><feGaussianBlur in="SourceAlpha" stdDeviation="11.5" result="blur"/><feComponentTransfer in="blur" color-interpolation-filters="sRGB"><feFuncR type="linear" slope="0" intercept="0.4627451"/><feFuncG type="linear" slope="0" intercept="0.64705884"/><feFuncB type="linear" slope="0" intercept="0.6862745"/><feFuncA type="linear" slope="1.0" intercept="0"/></feComponentTransfer></filter></defs><g id="p.7"><path fill="#000000" fill-opacity="0.0" d="m409.4802 131.28346l529.1339 0l0 203.71654l-529.1339 0z" fill-rule="evenodd"/><path stroke="#d0e0e3" stroke-width="2.0" stroke-linejoin="round" stroke-linecap="butt" d="m409.4802 131.28346l529.1339 0l0 203.71654l-529.1339 0z" fill-rule="evenodd"/></g><g filter="url(#shadowFilter-p.8)"><use xlink:href="#p.8" transform=""/></g><defs><filter id="shadowFilter-p.8" filterUnits="userSpaceOnUse"><feGaussianBlur in="SourceAlpha" stdDeviation="11.5" result="blur"/><feComponentTransfer in="blur" color-interpolation-filters="sRGB"><feFuncR type="linear" slope="0" intercept="0.4627451"/><feFuncG type="linear" slope="0" intercept="0.64705884"/><feFuncB type="linear" slope="0" intercept="0.6862745"/><feFuncA type="linear" slope="1.0" intercept="0"/></feComponentTransfer></filter></defs><g id="p.8"><path fill="#000000" fill-opacity="0.0" d="m397.79996 139.9217l529.1339 0l0 186.20473l-529.1339 0z" fill-rule="evenodd"/><path stroke="#d0e0e3" stroke-width="4.0" stroke-linejoin="round" stroke-linecap="butt" d="m397.79996 139.9217l529.1339 0l0 186.20473l-529.1339 0z" fill-rule="evenodd"/></g><g filter="url(#shadowFilter-p.9)"><use xlink:href="#p.9" transform=""/></g><defs><filter id="shadowFilter-p.9" filterUnits="userSpaceOnUse"><feGaussianBlur in="SourceAlpha" stdDeviation="5.5" result="blur"/><feComponentTransfer in="blur" color-interpolation-filters="sRGB"><feFuncR type="linear" slope="0" intercept="0.4627451"/><feFuncG type="linear" slope="0" intercept="0.64705884"/><feFuncB type="linear" slope="0" intercept="0.6862745"/><feFuncA type="linear" slope="0.5" intercept="0"/></feComponentTransfer></filter></defs><g id="p.9"><path fill="#000000" fill-opacity="0.0" d="m442.6719 139.92126l484.25198 0l0 186.20471l-484.25198 0z" fill-rule="evenodd"/><path fill="#000000" fill-opacity="0.0" d="m506.02658 197.45514l267.6356 0l0 71.99927l-267.6356 0l0 -71.99927z" fill-rule="nonzero"/><path fill="#d0e0e3" d="m542.8859 217.63487l-14.46875 0l0 37.46875l-6.9375 0l0 -37.46875l-14.5312195 0l0 -6.078125l35.93747 0l0 6.078125zm13.056946 38.078125q-3.734375 0 -6.78125 -1.3125q-3.03125 -1.328125 -5.234375 -3.625q-2.203125 -2.296875 -3.40625 -5.265625q-1.1875 -2.984375 -1.1875 -6.359375q0 -4.53125 2.078125 -8.296875q2.09375 -3.78125 5.828125 -6.078125q3.734375 -2.296875 8.765625 -2.296875q5.03125 0 8.671875 2.296875q3.65625 2.296875 5.671875 6.046875q2.03125 3.734375 2.03125 8.03125q0 0.734375 -0.0625 1.375q-0.0625 0.640625 -0.125 1.078125l-25.6875 0q0.1875 2.8125 1.5625 4.9375q1.375 2.109375 3.515625 3.3125q2.15625 1.1875 4.609375 1.1875q2.703125 0 5.125 -1.34375q2.421875 -1.34375 3.28125 -3.5625l5.765625 1.65625q-1.046875 2.328125 -3.171875 4.203125q-2.109375 1.875 -5.0 2.953125q-2.875 1.0625 -6.25 1.0625zm-9.625 -18.890625l19.375 0q-0.171875 -2.75 -1.5625 -4.859375q-1.375 -2.125 -3.5 -3.3125q-2.109375 -1.203125 -4.6875 -1.203125q-2.515625 0 -4.625 1.203125q-2.109375 1.1875 -3.46875 3.3125q-1.34375 2.109375 -1.53125 4.859375zm46.115234 18.890625q-3.734375 0 -6.78125 -1.3125q-3.03125 -1.328125 -5.234375 -3.65625q-2.203125 -2.328125 -3.40625 -5.328125q-1.1875 -3.0 -1.1875 -6.375q0 -4.546875 2.046875 -8.28125q2.0625 -3.75 5.765625 -6.015625q3.71875 -2.265625 8.796875 -2.265625q4.90625 0 8.546875 2.1875q3.65625 2.171875 5.375 5.78125l-6.5625 2.09375q-1.09375 -2.03125 -3.09375 -3.15625q-1.984375 -1.140625 -4.390625 -1.140625q-2.6875 0 -4.875 1.375q-2.171875 1.375 -3.4375 3.8125q-1.25 2.421875 -1.25 5.609375q0 3.0625 1.28125 5.546875q1.296875 2.484375 3.46875 3.921875q2.1875 1.4375 4.875 1.4375q1.65625 0 3.21875 -0.578125q1.578125 -0.578125 2.734375 -1.59375q1.171875 -1.015625 1.65625 -2.234375l6.625 1.953125q-1.046875 2.390625 -3.109375 4.234375q-2.046875 1.84375 -4.84375 2.921875q-2.78125 1.0625 -6.21875 1.0625zm48.516846 -0.609375l-6.75 0l0 -17.96875q0 -4.359375 -1.59375 -6.5q-1.59375 -2.140625 -4.46875 -2.140625q-1.78125 0 -3.6875 0.984375q-1.90625 0.96875 -3.375 2.65625q-1.46875 1.6875 -2.140625 3.890625l0 19.078125l-6.75 0l0 -44.765625l6.75 0l0 19.125q1.84375 -3.25 5.03125 -5.109375q3.1875 -1.875 6.859375 -1.875q3.015625 0 4.96875 1.046875q1.96875 1.03125 3.09375 2.84375q1.140625 1.8125 1.59375 4.171875q0.46875 2.359375 0.46875 5.0l0 19.5625zm36.612915 0l-6.75 0l0 -17.96875q0 -4.484375 -1.4375 -6.5625q-1.4375 -2.078125 -4.265625 -2.078125q-1.953125 0 -3.890625 0.984375q-1.9375 0.96875 -3.46875 2.65625q-1.53125 1.6875 -2.203125 3.890625l0 19.078125l-6.75 0l0 -32.078125l6.140625 0l0 6.4375q1.21875 -2.140625 3.203125 -3.703125q2.0 -1.5625 4.515625 -2.421875q2.515625 -0.859375 5.34375 -0.859375q2.875 0 4.734375 1.046875q1.875 1.03125 2.953125 2.84375q1.078125 1.8125 1.46875 4.171875q0.40625 2.359375 0.40625 5.0l0 19.5625zm22.25354 0.609375q-3.796875 0 -6.8125 -1.3125q-3.0 -1.328125 -5.171875 -3.65625q-2.171875 -2.328125 -3.34375 -5.296875q-1.15625 -2.984375 -1.15625 -6.34375q0 -3.375 1.15625 -6.375q1.171875 -3.015625 3.34375 -5.3125q2.171875 -2.296875 5.203125 -3.609375q3.046875 -1.328125 6.78125 -1.328125q3.75 0 6.78125 1.328125q3.03125 1.3125 5.203125 3.609375q2.1875 2.296875 3.34375 5.3125q1.171875 3.0 1.171875 6.375q0 3.359375 -1.171875 6.34375q-1.15625 2.96875 -3.34375 5.296875q-2.171875 2.328125 -5.203125 3.65625q-3.03125 1.3125 -6.78125 1.3125zm-9.5625 -16.5625q0 3.078125 1.28125 5.53125q1.296875 2.453125 3.4375 3.859375q2.15625 1.40625 4.84375 1.40625q2.640625 0 4.8125 -1.4375q2.1875 -1.4375 3.46875 -3.921875q1.296875 -2.484375 1.296875 -5.484375q0 -3.078125 -1.296875 -5.53125q-1.28125 -2.453125 -3.46875 -3.890625q-2.171875 -1.4375 -4.8125 -1.4375q-2.6875 0 -4.84375 1.46875q-2.140625 1.46875 -3.4375 3.890625q-1.28125 2.421875 -1.28125 5.546875zm32.138306 -28.8125l6.75 0l0 35.5q0 2.453125 0.734375 3.140625q0.734375 0.671875 1.84375 0.671875q1.21875 0 2.28125 -0.25q1.078125 -0.25 1.875 -0.609375l0.984375 5.328125q-1.46875 0.609375 -3.5 1.03125q-2.015625 0.4375 -3.609375 0.4375q-3.4375 0 -5.40625 -1.921875q-1.953125 -1.9375 -1.953125 -5.375l0 -37.953125zm32.803528 45.375q-3.796875 0 -6.8125 -1.3125q-3.0 -1.328125 -5.171875 -3.65625q-2.171875 -2.328125 -3.34375 -5.296875q-1.15625 -2.984375 -1.15625 -6.34375q0 -3.375 1.15625 -6.375q1.171875 -3.015625 3.34375 -5.3125q2.171875 -2.296875 5.203125 -3.609375q3.046875 -1.328125 6.78125 -1.328125q3.75 0 6.78125 1.328125q3.03125 1.3125 5.203125 3.609375q2.1875 2.296875 3.34375 5.3125q1.171875 3.0 1.171875 6.375q0 3.359375 -1.171875 6.34375q-1.15625 2.96875 -3.34375 5.296875q-2.171875 2.328125 -5.203125 3.65625q-3.03125 1.3125 -6.78125 1.3125zm-9.5625 -16.5625q0 3.078125 1.28125 5.53125q1.296875 2.453125 3.4375 3.859375q2.15625 1.40625 4.84375 1.40625q2.640625 0 4.8125 -1.4375q2.1875 -1.4375 3.46875 -3.921875q1.296875 -2.484375 1.296875 -5.484375q0 -3.078125 -1.296875 -5.53125q-1.28125 -2.453125 -3.46875 -3.890625q-2.171875 -1.4375 -4.8125 -1.4375q-2.6875 0 -4.84375 1.46875q-2.140625 1.46875 -3.4375 3.890625q-1.28125 2.421875 -1.28125 5.546875z" fill-rule="nonzero"/><path fill="#d0e0e3" d="m790.4122 255.41612q-3.25 0 -5.953125 -1.3125q-2.703125 -1.328125 -4.640625 -3.59375q-1.921875 -2.28125 -3.0 -5.21875q-1.078125 -2.9375 -1.078125 -6.1875q0 -3.4375 1.109375 -6.4375q1.109375 -3.015625 3.09375 -5.3125q2.0 -2.296875 4.6875 -3.578125q2.703125 -1.296875 6.015625 -1.296875q3.875 0 6.78125 1.84375q2.90625 1.828125 4.8125 4.78125l0 -6.078125l5.953125 0l0 31.15625q0 4.6562653 -2.25 7.9062653q-2.234375 3.25 -6.09375 4.96875q-3.859375 1.71875 -8.703125 1.71875q-5.34375 0 -8.84375 -1.84375q-3.484375 -1.828125 -5.9375 -5.015625l3.796875 -3.5625q1.84375 2.578125 4.75 3.921875q2.921875 1.359375 6.234375 1.359375q2.75 0 5.109375 -1.015625q2.359375 -1.015625 3.765625 -3.140625q1.421875 -2.109375 1.421875 -5.2968903l0 -4.90625q-1.71875 2.890625 -4.734375 4.515625q-3.0 1.625 -6.296875 1.625zm2.203125 -5.46875q1.53125 0 2.9375 -0.515625q1.421875 -0.515625 2.609375 -1.40625q1.203125 -0.890625 2.046875 -2.015625q0.859375 -1.140625 1.234375 -2.4375l0 -8.40625q-0.796875 -2.078125 -2.265625 -3.640625q-1.46875 -1.5625 -3.3125 -2.421875q-1.84375 -0.859375 -3.75 -0.859375q-2.203125 0 -3.953125 0.953125q-1.75 0.953125 -2.984375 2.515625q-1.21875 1.5625 -1.890625 3.53125q-0.671875 1.953125 -0.671875 4.03125q0 2.21875 0.765625 4.125q0.765625 1.890625 2.109375 3.390625q1.359375 1.5 3.1875 2.328125q1.84375 0.828125 3.9375 0.828125z" fill-rule="nonzero"/><path fill="#000000" fill-opacity="0.0" d="m812.2376 197.45514l51.331665 0l0 71.99927l-51.331665 0l0 -71.99927z" fill-rule="nonzero"/><path fill="#d0e0e3" d="m816.2845 255.10362l0 -32.078125l6.75 0l0 32.078125l-6.75 0zm0 -37.34375l0 -7.421875l6.75 0l0 7.421875l-6.75 0zm29.37268 37.953125q-3.734375 0 -6.78125 -1.3125q-3.03125 -1.328125 -5.234375 -3.625q-2.203125 -2.296875 -3.40625 -5.265625q-1.1875 -2.984375 -1.1875 -6.359375q0 -4.53125 2.078125 -8.296875q2.09375 -3.78125 5.828125 -6.078125q3.734375 -2.296875 8.765625 -2.296875q5.03125 0 8.671875 2.296875q3.65625 2.296875 5.671875 6.046875q2.03125 3.734375 2.03125 8.03125q0 0.734375 -0.0625 1.375q-0.0625 0.640625 -0.125 1.078125l-25.6875 0q0.1875 2.8125 1.5625 4.9375q1.375 2.109375 3.515625 3.3125q2.15625 1.1875 4.609375 1.1875q2.703125 0 5.125 -1.34375q2.421875 -1.34375 3.28125 -3.5625l5.765625 1.65625q-1.046875 2.328125 -3.171875 4.203125q-2.109375 1.875 -5.0 2.953125q-2.875 1.0625 -6.25 1.0625zm-9.625 -18.890625l19.375 0q-0.171875 -2.75 -1.5625 -4.859375q-1.375 -2.125 -3.5 -3.3125q-2.109375 -1.203125 -4.6875 -1.203125q-2.515625 0 -4.625 1.203125q-2.109375 1.1875 -3.46875 3.3125q-1.34375 2.109375 -1.53125 4.859375z" fill-rule="nonzero"/><path fill="#010000" fill-opacity="0.0" d="m863.5693 197.45514l0 0l0 71.99927l0 0l0 -71.99927z" fill-rule="nonzero"/><path fill="#d0e0e3" d="m506.02658 259.0903l267.6356 0l0 5.519989l-267.6356 0l0 -5.519989z" fill-rule="nonzero"/><path fill="#d0e0e3" d="m812.23755 259.0903l51.331665 0l0 5.519989l-51.331665 0l0 -5.519989z" fill-rule="nonzero"/></g><g filter="url(#shadowFilter-p.10)"><use xlink:href="#p.10" transform=""/></g><defs><filter id="shadowFilter-p.10" filterUnits="userSpaceOnUse"><feGaussianBlur in="SourceAlpha" stdDeviation="2.5" result="blur"/><feComponentTransfer in="blur" color-interpolation-filters="sRGB"><feFuncR type="linear" slope="0" intercept="0.4627451"/><feFuncG type="linear" slope="0" intercept="0.64705884"/><feFuncB type="linear" slope="0" intercept="0.6862745"/><feFuncA type="linear" slope="0.5" intercept="0"/></feComponentTransfer></filter></defs><g id="p.10"><path fill="#000000" fill-opacity="0.0" d="m166.75363 126.43795l0 0c36.721558 39.374184 96.25894 39.374184 132.9805 0l31.379639 33.6464l0 0c-36.721558 39.37419 -36.721558 103.21237 0 142.58655l-31.379639 33.646393l0 0c-36.721558 -39.374176 -96.25894 -39.374176 -132.9805 0l-31.379639 -33.646393c36.721558 -39.374176 36.721558 -103.21236 0 -142.58655z" fill-rule="evenodd"/><path stroke="#d0e0e3" stroke-width="2.0" stroke-linejoin="round" stroke-linecap="butt" d="m166.75363 126.43795l0 0c36.721558 39.374184 96.25894 39.374184 132.9805 0l31.379639 33.6464l0 0c-36.721558 39.37419 -36.721558 103.21237 0 142.58655l-31.379639 33.646393l0 0c-36.721558 -39.374176 -96.25894 -39.374176 -132.9805 0l-31.379639 -33.646393c36.721558 -39.374176 36.721558 -103.21236 0 -142.58655z" fill-rule="evenodd"/></g><g filter="url(#shadowFilter-p.11)"><use xlink:href="#p.11" transform=""/></g><defs><filter id="shadowFilter-p.11" filterUnits="userSpaceOnUse"><feGaussianBlur in="SourceAlpha" stdDeviation="2.5" result="blur"/><feComponentTransfer in="blur" color-interpolation-filters="sRGB"><feFuncR type="linear" slope="0" intercept="0.4627451"/><feFuncG type="linear" slope="0" intercept="0.64705884"/><feFuncB type="linear" slope="0" intercept="0.6862745"/><feFuncA type="linear" slope="0.5" intercept="0"/></feComponentTransfer></filter></defs><g id="p.11"><path fill="#000000" fill-opacity="0.0" d="m116.99247 200.82483l0 0c51.949135 0 94.06223 -42.1131 94.06223 -94.06223l44.39206 0l0 0c0 51.949135 42.113113 94.06223 94.06224 94.06223l0 61.188293l0 0c-51.949127 0 -94.06224 42.1131 -94.06224 94.062225l-44.39206 0c0 -51.949127 -42.1131 -94.062225 -94.06223 -94.062225z" fill-rule="evenodd"/><path stroke="#d0e0e3" stroke-width="2.0" stroke-linejoin="round" stroke-linecap="butt" d="m116.99247 200.82483l0 0c51.949135 0 94.06223 -42.1131 94.06223 -94.06223l44.39206 0l0 0c0 51.949135 42.113113 94.06223 94.06224 94.06223l0 61.188293l0 0c-51.949127 0 -94.06224 42.1131 -94.06224 94.062225l-44.39206 0c0 -51.949127 -42.1131 -94.062225 -94.06223 -94.062225z" fill-rule="evenodd"/></g><g filter="url(#shadowFilter-p.12)"><use xlink:href="#p.12" transform=""/></g><defs><filter id="shadowFilter-p.12" filterUnits="userSpaceOnUse"><feGaussianBlur in="SourceAlpha" stdDeviation="2.5" result="blur"/><feComponentTransfer in="blur" color-interpolation-filters="sRGB"><feFuncR type="linear" slope="0" intercept="0.4627451"/><feFuncG type="linear" slope="0" intercept="0.64705884"/><feFuncB type="linear" slope="0" intercept="0.6862745"/><feFuncA type="linear" slope="0.5" intercept="0"/></feComponentTransfer></filter></defs><g id="p.12"><path fill="#000000" fill-opacity="0.0" d="m189.65283 231.4007l0 0c0 -25.817184 19.518982 -46.74614 43.596848 -46.74614l0 0c11.562607 0 22.651642 4.9250183 30.827621 13.69162c8.175995 8.766602 12.769226 20.656662 12.769226 33.05452l0 0c0 25.81717 -19.518982 46.746124 -43.596848 46.746124l0 0c-24.077866 0 -43.596848 -20.928955 -43.596848 -46.746124z" fill-rule="evenodd"/><path stroke="#d0e0e3" stroke-width="2.0" stroke-linejoin="round" stroke-linecap="butt" d="m189.65283 231.4007l0 0c0 -25.817184 19.518982 -46.74614 43.596848 -46.74614l0 0c11.562607 0 22.651642 4.9250183 30.827621 13.69162c8.175995 8.766602 12.769226 20.656662 12.769226 33.05452l0 0c0 25.81717 -19.518982 46.746124 -43.596848 46.746124l0 0c-24.077866 0 -43.596848 -20.928955 -43.596848 -46.746124z" fill-rule="evenodd"/></g><g filter="url(#shadowFilter-p.13)"><use xlink:href="#p.13" transform=""/></g><defs><filter id="shadowFilter-p.13" filterUnits="userSpaceOnUse"><feGaussianBlur in="SourceAlpha" stdDeviation="2.5" result="blur"/><feComponentTransfer in="blur" color-interpolation-filters="sRGB"><feFuncR type="linear" slope="0" intercept="0.4627451"/><feFuncG type="linear" slope="0" intercept="0.64705884"/><feFuncB type="linear" slope="0" intercept="0.6862745"/><feFuncA type="linear" slope="0.5" intercept="0"/></feComponentTransfer></filter></defs><g id="p.13"><path fill="#d0e0e3" d="m232.86023 278.13898l0 0c-23.863846 0 -43.20932 -20.917358 -43.20932 -46.720184c0 -25.802841 19.345474 -46.72017 43.20932 -46.72017l0 0c-19.022049 6.2539215 -32.024155 25.222748 -32.024155 46.72017c0 21.497421 13.002106 40.466248 32.024155 46.720184z" fill-rule="evenodd"/><path stroke="#d0e0e3" stroke-width="2.0" stroke-linejoin="round" stroke-linecap="butt" d="m232.86023 278.13898l0 0c-23.863846 0 -43.20932 -20.917358 -43.20932 -46.720184c0 -25.802841 19.345474 -46.72017 43.20932 -46.72017l0 0c-19.022049 6.2539215 -32.024155 25.222748 -32.024155 46.72017c0 21.497421 13.002106 40.466248 32.024155 46.720184z" fill-rule="evenodd"/></g></g></svg>