<svg version="1.1" viewBox="0.0 0.0 968.6929133858267 466.3937007874016" fill="none" stroke="none" stroke-linecap="square" stroke-miterlimit="10" xmlns:xlink="http://www.w3.org/1999/xlink" xmlns="http://www.w3.org/2000/svg"><clipPath id="p.0"><path d="m0 0l968.69293 0l0 466.3937l-968.69293 0l0 -466.3937z" clip-rule="nonzero"/></clipPath><g clip-path="url(#p.0)"><path fill="#000000" fill-opacity="0.0" d="m0 0l968.69293 0l0 466.3937l-968.69293 0z" fill-rule="evenodd"/><path fill="#212529" d="m0 0l968.69293 0l0 466.3937l-968.69293 0z" fill-rule="evenodd"/><g filter="url(#shadowFilter-p.1)"><use xlink:href="#p.1" transform=""/></g><defs><filter id="shadowFilter-p.1" filterUnits="userSpaceOnUse"><feGaussianBlur in="SourceAlpha" stdDeviation="11.5" result="blur"/><feComponentTransfer in="blur" color-interpolation-filters="sRGB"><feFuncR type="linear" slope="0" intercept="0.4627451"/><feFuncG type="linear" slope="0" intercept="0.64705884"/><feFuncB type="linear" slope="0" intercept="0.6862745"/><feFuncA type="linear" slope="1.0" intercept="0"/></feComponentTransfer></filter></defs><g id="p.1"><path fill="#000000" fill-opacity="0.0" d="m233.2441 447.59055l-187.54321 -108.21997l0 -212.25294l187.54321 -108.21999l187.54323 108.21999l0 212.25294z" fill-rule="evenodd"/><path stroke="#d0e0e3" stroke-width="1.0" stroke-linejoin="round" stroke-linecap="butt" d="m233.2441 447.59055l-187.54321 -108.21997l0 -212.25294l187.54321 -108.21999l187.54323 108.21999l0 212.25294z" fill-rule="evenodd"/></g><g filter="url(#shadowFilter-p.2)"><use xlink:href="#p.2" transform=""/></g><defs><filter id="shadowFilter-p.2" filterUnits="userSpaceOnUse"><feGaussianBlur in="SourceAlpha" stdDeviation="11.5" result="blur"/><feComponentTransfer in="blur" color-interpolation-filters="sRGB"><feFuncR type="linear" slope="0" intercept="0.4627451"/><feFuncG type="linear" slope="0" intercept="0.64705884"/><feFuncB type="linear" slope="0" intercept="0.6862745"/><feFuncA type="linear" slope="1.0" intercept="0"/></feComponentTransfer></filter></defs><g id="p.2"><path fill="#000000" fill-opacity="0.0" d="m18.89895 233.27296l108.21999 -187.54321l212.25294 0l108.21997 187.54321l-108.21997 187.54323l-212.25294 0z" fill-rule="evenodd"/><path stroke="#d0e0e3" stroke-width="1.0" stroke-linejoin="round" stroke-linecap="butt" d="m18.89895 233.27296l108.21999 -187.54321l212.25294 0l108.21997 187.54321l-108.21997 187.54323l-212.25294 0z" fill-rule="evenodd"/></g><g filter="url(#shadowFilter-p.3)"><use xlink:href="#p.3" transform=""/></g><defs><filter id="shadowFilter-p.3" filterUnits="userSpaceOnUse"><feGaussianBlur in="SourceAlpha" stdDeviation="11.5" result="blur"/><feComponentTransfer in="blur" color-interpolation-filters="sRGB"><feFuncR type="linear" slope="0" intercept="0.4627451"/><feFuncG type="linear" slope="0" intercept="0.64705884"/><feFuncB type="linear" slope="0" intercept="0.6862745"/><feFuncA type="linear" slope="1.0" intercept="0"/></feComponentTransfer></filter></defs><g id="p.3"><path fill="#000000" fill-opacity="0.0" d="m29.700787 233.2441l101.69534 -176.23615l203.6959 0l101.69537 176.23615l-101.69537 176.23613l-203.6959 0z" fill-rule="evenodd"/><path stroke="#d0e0e3" stroke-width="2.0" stroke-linejoin="round" stroke-linecap="butt" d="m29.700787 233.2441l101.69534 -176.23615l203.6959 0l101.69537 176.23615l-101.69537 176.23613l-203.6959 0z" fill-rule="evenodd"/></g><g filter="url(#shadowFilter-p.4)"><use xlink:href="#p.4" transform=""/></g><defs><filter id="shadowFilter-p.4" filterUnits="userSpaceOnUse"><feGaussianBlur in="SourceAlpha" stdDeviation="11.5" result="blur"/><feComponentTransfer in="blur" color-interpolation-filters="sRGB"><feFuncR type="linear" slope="0" intercept="0.4627451"/><feFuncG type="linear" slope="0" intercept="0.64705884"/><feFuncB type="linear" slope="0" intercept="0.6862745"/><feFuncA type="linear" slope="1.0" intercept="0"/></feComponentTransfer></filter></defs><g id="p.4"><path fill="#000000" fill-opacity="0.0" d="m233.2441 436.7874l-176.23615 -101.69537l0 -203.6959l176.23615 -101.69534l176.23613 101.69534l0 203.6959z" fill-rule="evenodd"/><path stroke="#d0e0e3" stroke-width="2.0" stroke-linejoin="round" stroke-linecap="butt" d="m233.2441 436.7874l-176.23615 -101.69537l0 -203.6959l176.23615 -101.69534l176.23613 101.69534l0 203.6959z" fill-rule="evenodd"/></g><g filter="url(#shadowFilter-p.5)"><use xlink:href="#p.5" transform=""/></g><defs><filter id="shadowFilter-p.5" filterUnits="userSpaceOnUse"><feGaussianBlur in="SourceAlpha" stdDeviation="11.5" result="blur"/><feComponentTransfer in="blur" color-interpolation-filters="sRGB"><feFuncR type="linear" slope="0" intercept="0.4627451"/><feFuncG type="linear" slope="0" intercept="0.64705884"/><feFuncB type="linear" slope="0" intercept="0.6862745"/><feFuncA type="linear" slope="1.0" intercept="0"/></feComponentTransfer></filter></defs><g id="p.5"><path fill="#000000" fill-opacity="0.0" d="m233.2441 421.43307l-164.36212 -94.84357l0 -186.69083l164.36212 -94.84357l164.36214 94.84357l0 186.69083z" fill-rule="evenodd"/><path stroke="#d0e0e3" stroke-width="4.0" stroke-linejoin="round" stroke-linecap="butt" d="m233.2441 421.43307l-164.36212 -94.84357l0 -186.69083l164.36212 -94.84357l164.36214 94.84357l0 186.69083z" fill-rule="evenodd"/></g><g filter="url(#shadowFilter-p.6)"><use xlink:href="#p.6" transform=""/></g><defs><filter id="shadowFilter-p.6" filterUnits="userSpaceOnUse"><feGaussianBlur in="SourceAlpha" stdDeviation="11.5" result="blur"/><feComponentTransfer in="blur" color-interpolation-filters="sRGB"><feFuncR type="linear" slope="0" intercept="0.4627451"/><feFuncG type="linear" slope="0" intercept="0.64705884"/><feFuncB type="linear" slope="0" intercept="0.6862745"/><feFuncA type="linear" slope="1.0" intercept="0"/></feComponentTransfer></filter></defs><g id="p.6"><path fill="#000000" fill-opacity="0.0" d="m420.78726 127.25771l529.1339 0l0 212.0315l-529.1339 0z" fill-rule="evenodd"/><path stroke="#d0e0e3" stroke-width="1.0" stroke-linejoin="round" stroke-linecap="butt" d="m420.78726 127.25771l529.1339 0l0 212.0315l-529.1339 0z" fill-rule="evenodd"/></g><g filter="url(#shadowFilter-p.7)"><use xlink:href="#p.7" transform=""/></g><defs><filter id="shadowFilter-p.7" filterUnits="userSpaceOnUse"><feGaussianBlur in="SourceAlpha" stdDeviation="11.5" result="blur"/><feComponentTransfer in="blur" color-interpolation-filters="sRGB"><feFuncR type="linear" slope="0" intercept="0.4627451"/><feFuncG type="linear" slope="0" intercept="0.64705884"/><feFuncB type="linear" slope="0" intercept="0.6862745"/><feFuncA type="linear" slope="1.0" intercept="0"/></feComponentTransfer></filter></defs><g id="p.7"><path fill="#000000" fill-opacity="0.0" d="m409.4802 131.28346l529.1339 0l0 203.71654l-529.1339 0z" fill-rule="evenodd"/><path stroke="#d0e0e3" stroke-width="2.0" stroke-linejoin="round" stroke-linecap="butt" d="m409.4802 131.28346l529.1339 0l0 203.71654l-529.1339 0z" fill-rule="evenodd"/></g><g filter="url(#shadowFilter-p.8)"><use xlink:href="#p.8" transform=""/></g><defs><filter id="shadowFilter-p.8" filterUnits="userSpaceOnUse"><feGaussianBlur in="SourceAlpha" stdDeviation="11.5" result="blur"/><feComponentTransfer in="blur" color-interpolation-filters="sRGB"><feFuncR type="linear" slope="0" intercept="0.4627451"/><feFuncG type="linear" slope="0" intercept="0.64705884"/><feFuncB type="linear" slope="0" intercept="0.6862745"/><feFuncA type="linear" slope="1.0" intercept="0"/></feComponentTransfer></filter></defs><g id="p.8"><path fill="#000000" fill-opacity="0.0" d="m397.79996 139.9217l529.1339 0l0 186.20473l-529.1339 0z" fill-rule="evenodd"/><path stroke="#d0e0e3" stroke-width="4.0" stroke-linejoin="round" stroke-linecap="butt" d="m397.79996 139.9217l529.1339 0l0 186.20473l-529.1339 0z" fill-rule="evenodd"/></g><g filter="url(#shadowFilter-p.9)"><use xlink:href="#p.9" transform=""/></g><defs><filter id="shadowFilter-p.9" filterUnits="userSpaceOnUse"><feGaussianBlur in="SourceAlpha" stdDeviation="5.5" result="blur"/><feComponentTransfer in="blur" color-interpolation-filters="sRGB"><feFuncR type="linear" slope="0" intercept="0.62352943"/><feFuncG type="linear" slope="0" intercept="0.77254903"/><feFuncB type="linear" slope="0" intercept="0.9098039"/><feFuncA type="linear" slope="0.5" intercept="0"/></feComponentTransfer></filter></defs><g id="p.9"><path fill="#000000" fill-opacity="0.0" d="m442.6719 139.92126l484.25198 0l0 186.20471l-484.25198 0z" fill-rule="evenodd"/><path fill="#000000" fill-opacity="0.0" d="m530.9869 197.45514l307.62207 0l0 71.99927l-307.62207 0l0 -71.99927z" fill-rule="nonzero"/><path fill="#a2c4c9" d="m535.8931 255.10362l0 -43.546875l6.875 0l0 37.46875l23.359375 0l0 6.078125l-30.234375 0zm34.9563 0l0 -32.078125l6.75 0l0 32.078125l-6.75 0zm0 -37.34375l0 -7.421875l6.75 0l0 7.421875l-6.75 0zm32.68518 35.6875q-0.859375 0.421875 -2.15625 0.921875q-1.28125 0.484375 -2.90625 0.84375q-1.625 0.375 -3.328125 0.375q-2.09375 0 -3.875 -0.734375q-1.78125 -0.734375 -2.859375 -2.359375q-1.0625 -1.625 -1.0625 -4.203125l0 -20.046875l-4.234375 0l0 -5.21875l4.234375 0l0 -10.546875l6.75 0l0 10.546875l6.984375 0l0 5.21875l-6.984375 0l0 17.90625q0.125 1.65625 1.0625 2.453125q0.953125 0.796875 2.375 0.796875q1.40625 0 2.6875 -0.484375q1.296875 -0.5 1.90625 -0.796875l1.40625 5.328125zm22.446106 0q-0.859375 0.421875 -2.15625 0.921875q-1.28125 0.484375 -2.90625 0.84375q-1.625 0.375 -3.328125 0.375q-2.09375 0 -3.875 -0.734375q-1.78125 -0.734375 -2.859375 -2.359375q-1.0625 -1.625 -1.0625 -4.203125l0 -20.046875l-4.234375 0l0 -5.21875l4.234375 0l0 -10.546875l6.75 0l0 10.546875l6.984375 0l0 5.21875l-6.984375 0l0 17.90625q0.125 1.65625 1.0625 2.453125q0.953125 0.796875 2.375 0.796875q1.40625 0 2.6875 -0.484375q1.296875 -0.5 1.90625 -0.796875l1.40625 5.328125zm18.765564 2.265625q-3.734375 0 -6.78125 -1.3125q-3.03125 -1.328125 -5.234375 -3.625q-2.203125 -2.296875 -3.40625 -5.265625q-1.1875 -2.984375 -1.1875 -6.359375q0 -4.53125 2.078125 -8.296875q2.09375 -3.78125 5.828125 -6.078125q3.734375 -2.296875 8.765625 -2.296875q5.03125 0 8.671875 2.296875q3.65625 2.296875 5.671875 6.046875q2.03125 3.734375 2.03125 8.03125q0 0.734375 -0.0625 1.375q-0.0625 0.640625 -0.125 1.078125l-25.6875 0q0.1875 2.8125 1.5625 4.9375q1.375 2.109375 3.515625 3.3125q2.15625 1.1875 4.609375 1.1875q2.703125 0 5.125 -1.34375q2.421875 -1.34375 3.28125 -3.5625l5.765625 1.65625q-1.046875 2.328125 -3.171875 4.203125q-2.109375 1.875 -5.0 2.953125q-2.875 1.0625 -6.25 1.0625zm-9.625 -18.890625l19.375 0q-0.171875 -2.75 -1.5625 -4.859375q-1.375 -2.125 -3.5 -3.3125q-2.109375 -1.203125 -4.6875 -1.203125q-2.515625 0 -4.625 1.203125q-2.109375 1.1875 -3.46875 3.3125q-1.34375 2.109375 -1.53125 4.859375zm11.78125 -18.390625l-4.421875 -1.359375l3.5 -6.734375l6.4375 0l-5.515625 8.09375zm37.834045 10.421875q-3.921875 0.0625 -6.96875 1.78125q-3.03125 1.71875 -4.3125 4.84375l0 19.625l-6.75 0l0 -32.078125l6.25 0l0 7.171875q1.65625 -3.3125 4.359375 -5.296875q2.703125 -2.0 5.703125 -2.171875q0.609375 0 1.0 0q0.40625 0 0.71875 0.0625l0 6.0625zm2.5159912 16.859375q0 -3.0625 1.75 -5.359375q1.75 -2.296875 4.8125 -3.546875q3.0625 -1.265625 7.109436 -1.265625q2.15625 0 4.390625 0.3125q2.234375 0.296875 3.953125 0.96875l0 -2.015625q0 -3.375 -2.03125 -5.265625q-2.015625 -1.90625 -5.8125 -1.90625q-2.703125 0 -5.093811 0.953125q-2.390625 0.9375 -5.09375 2.65625l-2.265625 -4.53125q3.1875 -2.15625 6.40625 -3.1875q3.21875 -1.046875 6.781311 -1.046875q6.4375 0 10.140625 3.40625q3.71875 3.40625 3.71875 9.65625l0 11.953125q0 1.171875 0.390625 1.671875q0.40625 0.484375 1.390625 0.546875l0 5.390625q-0.921875 0.1875 -1.671875 0.25q-0.734375 0.0625 -1.21875 0.0625q-2.140625 0 -3.25 -1.046875q-1.109375 -1.046875 -1.28125 -2.453125l-0.1875 -1.84375q-2.09375 2.703125 -5.34375 4.171875q-3.25 1.46875 -6.562561 1.46875q-3.1875 0 -5.703125 -1.3125q-2.515625 -1.328125 -3.921875 -3.59375q-1.40625 -2.265625 -1.40625 -5.09375zm20.421936 1.96875q0.734375 -0.796875 1.15625 -1.59375q0.4375 -0.796875 0.4375 -1.40625l0 -3.6875q-1.71875 -0.671875 -3.625 -1.0q-1.890625 -0.34375 -3.734375 -0.34375q-3.687561 0 -5.984436 1.46875q-2.296875 1.46875 -2.296875 4.046875q0 1.40625 0.765625 2.703125q0.765625 1.28125 2.203125 2.078125q1.453125 0.796875 3.593811 0.796875q2.203125 0 4.21875 -0.859375q2.03125 -0.859375 3.265625 -2.203125zm34.09375 5.765625q-0.859375 0.421875 -2.15625 0.921875q-1.28125 0.484375 -2.90625 0.84375q-1.625 0.375 -3.328125 0.375q-2.09375 0 -3.875 -0.734375q-1.78125 -0.734375 -2.859375 -2.359375q-1.0625 -1.625 -1.0625 -4.203125l0 -20.046875l-4.234375 0l0 -5.21875l4.234375 0l0 -10.546875l6.75 0l0 10.546875l6.984375 0l0 5.21875l-6.984375 0l0 17.90625q0.125 1.65625 1.0625 2.453125q0.953125 0.796875 2.375 0.796875q1.40625 0 2.6875 -0.484375q1.296875 -0.5 1.90625 -0.796875l1.40625 5.328125zm4.3511963 -10.796875l0 -19.625l6.75 0l0 18.28125q0 4.296875 1.5625 6.46875q1.5625 2.171875 4.578125 2.171875q1.890625 0 3.703125 -0.796875q1.8125 -0.796875 3.3125 -2.359375q1.5 -1.5625 2.421875 -3.765625l0 -20.0l6.75 0l0 24.46875q0 1.171875 0.421875 1.671875q0.4375 0.484375 1.421875 0.546875l0 5.390625q-1.046875 0.1875 -1.71875 0.25q-0.671875 0.0625 -1.296875 0.0625q-1.828125 0 -3.0625 -1.015625q-1.21875 -1.015625 -1.40625 -2.609375l-0.125 -3.1875q-2.140625 3.5 -5.578125 5.3125q-3.4375 1.796875 -7.546875 1.796875q-5.03125 0 -7.609375 -3.3125q-2.578125 -3.3125 -2.578125 -9.75zm55.692627 -13.796875q-3.921875 0.0625 -6.96875 1.78125q-3.03125 1.71875 -4.3125 4.84375l0 19.625l-6.75 0l0 -32.078125l6.25 0l0 7.171875q1.65625 -3.3125 4.359375 -5.296875q2.703125 -2.0 5.703125 -2.171875q0.609375 0 1.0 0q0.40625 0 0.71875 0.0625l0 6.0625zm18.884705 26.859375q-3.734375 0 -6.78125 -1.3125q-3.03125 -1.328125 -5.234375 -3.625q-2.203125 -2.296875 -3.40625 -5.265625q-1.1875 -2.984375 -1.1875 -6.359375q0 -4.53125 2.078125 -8.296875q2.09375 -3.78125 5.828125 -6.078125q3.734375 -2.296875 8.765625 -2.296875q5.03125 0 8.671875 2.296875q3.65625 2.296875 5.671875 6.046875q2.03125 3.734375 2.03125 8.03125q0 0.734375 -0.0625 1.375q-0.0625 0.640625 -0.125 1.078125l-25.6875 0q0.1875 2.8125 1.5625 4.9375q1.375 2.109375 3.515625 3.3125q2.15625 1.1875 4.609375 1.1875q2.703125 0 5.125 -1.34375q2.421875 -1.34375 3.28125 -3.5625l5.765625 1.65625q-1.046875 2.328125 -3.171875 4.203125q-2.109375 1.875 -5.0 2.953125q-2.875 1.0625 -6.25 1.0625zm-9.625 -18.890625l19.375 0q-0.171875 -2.75 -1.5625 -4.859375q-1.375 -2.125 -3.5 -3.3125q-2.109375 -1.203125 -4.6875 -1.203125q-2.515625 0 -4.625 1.203125q-2.109375 1.1875 -3.46875 3.3125q-1.34375 2.109375 -1.53125 4.859375z" fill-rule="nonzero"/><path fill="#010000" fill-opacity="0.0" d="m838.60895 197.45514l0 0l0 71.99927l0 0l0 -71.99927z" fill-rule="nonzero"/><path fill="#a2c4c9" d="m530.9869 259.0903l307.62207 0l0 5.519989l-307.62207 0l0 -5.519989z" fill-rule="nonzero"/></g><g filter="url(#shadowFilter-p.10)"><use xlink:href="#p.10" transform=""/></g><defs><filter id="shadowFilter-p.10" filterUnits="userSpaceOnUse"><feGaussianBlur in="SourceAlpha" stdDeviation="11.5" result="blur"/><feComponentTransfer in="blur" color-interpolation-filters="sRGB"><feFuncR type="linear" slope="0" intercept="0.4627451"/><feFuncG type="linear" slope="0" intercept="0.64705884"/><feFuncB type="linear" slope="0" intercept="0.6862745"/><feFuncA type="linear" slope="1.0" intercept="0"/></feComponentTransfer></filter></defs><g id="p.10"><path fill="#000000" fill-opacity="0.0" d="m136.86244 336.4923c7.344528 -4.8200073 29.619858 -31.171143 38.25592 -37.11615c8.636063 -5.9450073 9.121124 1.5265808 13.560425 1.446106c4.4392853 -0.08047485 4.439682 1.445343 13.075348 -1.9289246c8.635651 -3.3742676 24.533798 -8.194275 38.7386 -18.31668c14.204788 -10.122406 31.316803 -23.940155 46.490143 -42.417755c15.173309 -18.4776 35.914185 -50.93431 44.549835 -68.44783c8.635681 -17.513535 7.102417 -30.04573 7.264099 -36.633316c0.16168213 -6.587593 -1.1286316 -5.784462 -6.2939453 -2.8922272c-5.1653137 2.8922272 -11.784241 11.970871 -24.697876 20.24559c-12.913666 8.2747345 -43.260345 22.975708 -52.78409 29.40274c-9.523758 6.4270477 -2.8251953 8.275528 -4.3584595 9.159531c-1.5332642 0.8839874 -2.5814514 -3.614502 -4.8411255 -3.8555145c-2.259674 -0.24102783 -1.7758026 -1.446518 -8.716904 2.4093933c-6.941101 3.8559113 -27.522278 15.022064 -32.929718 20.726059c-5.40744 5.7039795 2.0187378 11.489227 0.4850769 13.497864c-1.5336761 2.0086212 -5.651581 -4.980942 -9.687042 -1.4461212c-4.0354767 3.5348206 -10.974579 15.344345 -14.525787 22.654999c-3.5511932 7.3106537 -6.45842 16.549438 -6.7814026 21.208893c-0.3229828 4.659424 -3.1469727 11.407562 4.843521 6.7477417c7.990494 -4.659851 26.876709 -21.210083 43.09944 -34.706757c16.222717 -13.496674 44.309708 -40.087646 54.236893 -46.273285c9.927185 -6.185623 8.070557 4.2590637 5.3262024 9.159515c-2.7443542 4.900467 -5.004822 6.425461 -21.792267 20.243225c-16.78743 13.81778 -57.544357 44.507263 -78.93239 62.66339c-21.388016 18.156097 -42.131683 37.195007 -49.395767 46.273285c-7.264084 9.078247 -1.5332642 13.016205 5.811264 8.196228z" fill-rule="evenodd"/><path stroke="#d0e0e3" stroke-width="2.0" stroke-linejoin="round" stroke-linecap="butt" d="m136.86244 336.4923c7.344528 -4.8200073 29.619858 -31.171143 38.25592 -37.11615c8.636063 -5.9450073 9.121124 1.5265808 13.560425 1.446106c4.4392853 -0.08047485 4.439682 1.445343 13.075348 -1.9289246c8.635651 -3.3742676 24.533798 -8.194275 38.7386 -18.31668c14.204788 -10.122406 31.316803 -23.940155 46.490143 -42.417755c15.173309 -18.4776 35.914185 -50.93431 44.549835 -68.44783c8.635681 -17.513535 7.102417 -30.04573 7.264099 -36.633316c0.16168213 -6.587593 -1.1286316 -5.784462 -6.2939453 -2.8922272c-5.1653137 2.8922272 -11.784241 11.970871 -24.697876 20.24559c-12.913666 8.2747345 -43.260345 22.975708 -52.78409 29.40274c-9.523758 6.4270477 -2.8251953 8.275528 -4.3584595 9.159531c-1.5332642 0.8839874 -2.5814514 -3.614502 -4.8411255 -3.8555145c-2.259674 -0.24102783 -1.7758026 -1.446518 -8.716904 2.4093933c-6.941101 3.8559113 -27.522278 15.022064 -32.929718 20.726059c-5.40744 5.7039795 2.0187378 11.489227 0.4850769 13.497864c-1.5336761 2.0086212 -5.651581 -4.980942 -9.687042 -1.4461212c-4.0354767 3.5348206 -10.974579 15.344345 -14.525787 22.654999c-3.5511932 7.3106537 -6.45842 16.549438 -6.7814026 21.208893c-0.3229828 4.659424 -3.1469727 11.407562 4.843521 6.7477417c7.990494 -4.659851 26.876709 -21.210083 43.09944 -34.706757c16.222717 -13.496674 44.309708 -40.087646 54.236893 -46.273285c9.927185 -6.185623 8.070557 4.2590637 5.3262024 9.159515c-2.7443542 4.900467 -5.004822 6.425461 -21.792267 20.243225c-16.78743 13.81778 -57.544357 44.507263 -78.93239 62.66339c-21.388016 18.156097 -42.131683 37.195007 -49.395767 46.273285c-7.264084 9.078247 -1.5332642 13.016205 5.811264 8.196228z" fill-rule="evenodd"/></g><g filter="url(#shadowFilter-p.11)"><use xlink:href="#p.11" transform=""/></g><defs><filter id="shadowFilter-p.11" filterUnits="userSpaceOnUse"><feGaussianBlur in="SourceAlpha" stdDeviation="11.5" result="blur"/><feComponentTransfer in="blur" color-interpolation-filters="sRGB"><feFuncR type="linear" slope="0" intercept="0.4627451"/><feFuncG type="linear" slope="0" intercept="0.64705884"/><feFuncB type="linear" slope="0" intercept="0.6862745"/><feFuncA type="linear" slope="1.0" intercept="0"/></feComponentTransfer></filter></defs><g id="p.11"><path fill="#000000" fill-opacity="0.0" d="m140.42389 335.87665c1.9505615 -0.9755249 8.423004 -6.030182 11.703415 -5.8530273c3.2803955 0.17715454 4.7873993 6.4724426 7.9789886 6.9160156c3.1916046 0.443573 8.333771 -4.343384 11.1706085 -4.254608c2.8368378 0.08880615 3.2795258 4.521454 5.850403 4.7874146c2.5708618 0.2659607 6.560791 -3.1028137 9.574799 -3.1915894c3.0139923 -0.08880615 4.786087 3.456665 8.509186 2.658783c3.7230988 -0.7979126 10.28302 -7.4461975 13.8293915 -7.4461975c3.5463715 0 3.2821503 6.9142456 7.448822 7.4461975c4.1666718 0.5319214 13.473312 -4.4317627 17.551178 -4.254608c4.0778656 0.17718506 4.2563477 5.0516357 6.9160156 5.3175964c2.659668 0.2659607 6.648285 -3.0126953 9.041992 -3.7217712c2.3937073 -0.70910645 2.9265137 -1.1531067 5.3202057 -0.5328369c2.393692 0.6203003 4.9641266 4.609375 9.042007 4.254608c4.0778503 -0.35476685 11.70166 -6.4720154 15.425201 -6.383209c3.7235107 0.08880615 3.0152893 6.650055 6.915985 6.9160156c3.9007263 0.2659607 12.942261 -5.0542297 16.48819 -5.320221c3.545929 -0.2659607 2.1277466 3.4584656 4.7874146 3.7244263c2.659668 0.2659607 8.156158 -2.128601 11.170593 -2.128601c3.0144348 0 5.763336 1.7738342 6.9160156 2.128601" fill-rule="evenodd"/><path stroke="#d0e0e3" stroke-width="1.0" stroke-linejoin="round" stroke-linecap="butt" d="m140.42389 335.87665c1.9505615 -0.9755249 8.423004 -6.030182 11.703415 -5.8530273c3.2803955 0.17715454 4.7873993 6.4724426 7.9789886 6.9160156c3.1916046 0.443573 8.333771 -4.343384 11.1706085 -4.254608c2.8368378 0.08880615 3.2795258 4.521454 5.850403 4.7874146c2.5708618 0.2659607 6.560791 -3.1028137 9.574799 -3.1915894c3.0139923 -0.08880615 4.786087 3.456665 8.509186 2.658783c3.7230988 -0.7979126 10.28302 -7.4461975 13.8293915 -7.4461975c3.5463715 0 3.2821503 6.9142456 7.448822 7.4461975c4.1666718 0.5319214 13.473312 -4.4317627 17.551178 -4.254608c4.0778656 0.17718506 4.2563477 5.0516357 6.9160156 5.3175964c2.659668 0.2659607 6.648285 -3.0126953 9.041992 -3.7217712c2.3937073 -0.70910645 2.9265137 -1.1531067 5.3202057 -0.5328369c2.393692 0.6203003 4.9641266 4.609375 9.042007 4.254608c4.0778503 -0.35476685 11.70166 -6.4720154 15.425201 -6.383209c3.7235107 0.08880615 3.0152893 6.650055 6.915985 6.9160156c3.9007263 0.2659607 12.942261 -5.0542297 16.48819 -5.320221c3.545929 -0.2659607 2.1277466 3.4584656 4.7874146 3.7244263c2.659668 0.2659607 8.156158 -2.128601 11.170593 -2.128601c3.0144348 0 5.763336 1.7738342 6.9160156 2.128601" fill-rule="evenodd"/></g></g></svg>